<?xml version="1.0" encoding="utf-8"?>
<!-- Generator: Adobe Illustrator 23.0.6, SVG Export Plug-In . SVG Version: 6.00 Build 0)  -->
<svg version="1.1" id="Layer_1" xmlns="http://www.w3.org/2000/svg" xmlns:xlink="http://www.w3.org/1999/xlink" x="0px" y="0px"
	 viewBox="0 0 23.8 23.8" style="enable-background:new 0 0 23.8 23.8;" xml:space="preserve">
<style type="text/css">
	.st0{fill:#FFFFFF;}
</style>
<path class="st0" d="M0,11.9c0,6.6,5.3,11.9,11.9,11.9c6.6,0,11.9-5.3,11.9-11.9S18.5,0,11.9,0C5.3,0,0,5.3,0,11.9z M13.8,4.3
	L13.8,4.3c0.7,0.7,0.7,1.7,0,2.4l-3.5,3.5h8c0.9,0,1.7,0.8,1.7,1.7s-0.8,1.7-1.7,1.7h-8l3.5,3.5c0.7,0.7,0.7,1.7,0,2.4l0,0
	c-0.7,0.7-1.7,0.7-2.4,0l-7.6-7.6l7.6-7.6C12.1,3.6,13.2,3.6,13.8,4.3z"/>
</svg>
