<?xml version="1.0" encoding="utf-8"?>
<!-- Generator: Adobe Illustrator 23.0.4, SVG Export Plug-In . SVG Version: 6.00 Build 0)  -->
<svg version="1.1" id="Layer_1" xmlns="http://www.w3.org/2000/svg" xmlns:xlink="http://www.w3.org/1999/xlink" x="0px" y="0px"
	 viewBox="0 0 1080 1080" style="enable-background:new 0 0 1080 1080;" xml:space="preserve">
<style type="text/css">
	.st0{fill:none;}
	.st1{fill:#FFFFFF;stroke:#A9A8A9;stroke-miterlimit:10;}
	.st2{fill:#E8E6E7;stroke:#A9A8A9;stroke-miterlimit:10;}
	.st3{fill:#A9A8A9;}
	.st4{fill:none;stroke:#A9A8A9;stroke-miterlimit:10;}
</style>
<rect y="2.33" class="st0" width="1079.02" height="1079.02"/>
<rect x="28.3" y="390.02" class="st1" width="43.9" height="363.37"/>
<rect x="108.97" y="387.75" class="st1" width="119.91" height="119.91"/>
<rect x="108.97" y="548.65" class="st2" width="119.91" height="119.91"/>
<rect x="124.64" y="369.73" class="st1" width="88.56" height="88.56"/>
<rect x="124.64" y="530.62" class="st1" width="88.56" height="88.56"/>
<circle class="st2" cx="50.25" cy="414.12" r="18.51"/>
<rect x="18.08" y="730.74" class="st2" width="244.64" height="42.32"/>
<path class="st2" d="M210.62,499.29h-31.83c-5.43,0-9.87-4.44-9.87-9.87v-6.97c0-5.43,4.44-9.87,9.87-9.87h31.83
	c5.43,0,9.87,4.44,9.87,9.87v6.97C220.49,494.85,216.05,499.29,210.62,499.29z"/>
<path class="st2" d="M210.62,659.3h-31.83c-5.43,0-9.87-4.44-9.87-9.87v-6.97c0-5.43,4.44-9.87,9.87-9.87h31.83
	c5.43,0,9.87,4.44,9.87,9.87v6.97C220.49,654.86,216.05,659.3,210.62,659.3z"/>
<rect x="38.88" y="456.06" class="st2" width="19.84" height="52.23"/>
<rect x="38.88" y="558.98" class="st2" width="19.84" height="52.23"/>
<rect x="38.88" y="661.89" class="st2" width="19.84" height="52.23"/>
<rect x="245.17" y="390.58" class="st2" width="18.54" height="117.08"/>
<rect x="245.17" y="550.06" class="st2" width="18.54" height="117.08"/>
<rect x="693.45" y="511.34" class="st1" width="288.59" height="119.91"/>
<rect x="693.45" y="653.36" class="st1" width="288.59" height="41.45"/>
<rect x="589.99" y="509.01" class="st1" width="88.56" height="88.56"/>
<rect x="589.99" y="650.53" class="st1" width="88.56" height="44.28"/>
<path class="st2" d="M952,622.88h-34.96c-5.43,0-9.87-4.44-9.87-9.87v-6.97c0-5.43,4.44-9.87,9.87-9.87H952
	c5.43,0,9.87,4.44,9.87,9.87v6.97C961.87,618.44,957.43,622.88,952,622.88z"/>
<rect x="576.14" y="450.12" class="st1" width="439.97" height="50.18"/>
<circle class="st2" cx="608.5" cy="474.39" r="18.51"/>
<rect x="930.74" y="446.47" transform="matrix(-1.836970e-16 1 -1 -1.836970e-16 1413.2404 -468.0764)" class="st2" width="19.84" height="52.23"/>
<rect x="827.83" y="446.47" transform="matrix(-1.836970e-16 1 -1 -1.836970e-16 1310.3285 -365.1645)" class="st2" width="19.84" height="52.23"/>
<rect x="724.92" y="446.47" transform="matrix(-1.836970e-16 1 -1 -1.836970e-16 1207.4165 -262.2525)" class="st2" width="19.84" height="52.23"/>
<g>
	<path class="st3" d="M147.95,571.01v10.94h-1.41v-10.94H147.95z"/>
	<path class="st3" d="M159.64,577.15c-0.08-1.53-0.18-3.36-0.16-4.72h-0.05c-0.37,1.28-0.83,2.65-1.38,4.16l-1.93,5.31h-1.07
		l-1.77-5.21c-0.52-1.54-0.96-2.96-1.27-4.25h-0.03c-0.03,1.36-0.11,3.2-0.21,4.84l-0.29,4.69h-1.35l0.76-10.94h1.8l1.87,5.29
		c0.45,1.35,0.83,2.55,1.1,3.69h0.05c0.28-1.1,0.67-2.3,1.15-3.69l1.95-5.29h1.8l0.68,10.94h-1.38L159.64,577.15z"/>
	<path class="st3" d="M165.08,578.51l-1.14,3.44h-1.46l3.72-10.94h1.7l3.73,10.94h-1.51l-1.17-3.44H165.08z M168.67,577.41
		l-1.07-3.15c-0.24-0.71-0.41-1.36-0.57-2h-0.03c-0.16,0.65-0.34,1.32-0.55,1.98l-1.07,3.17H168.67z"/>
	<path class="st3" d="M181.33,581.47c-0.63,0.23-1.88,0.6-3.36,0.6c-1.66,0-3.02-0.42-4.09-1.44c-0.94-0.91-1.53-2.37-1.53-4.08
		c0.02-3.26,2.26-5.65,5.93-5.65c1.27,0,2.26,0.28,2.73,0.5l-0.34,1.15c-0.58-0.26-1.31-0.47-2.42-0.47c-2.66,0-4.4,1.66-4.4,4.4
		c0,2.78,1.67,4.42,4.22,4.42c0.93,0,1.56-0.13,1.88-0.29v-3.26h-2.22v-1.14h3.6V581.47z"/>
	<path class="st3" d="M189.15,576.82h-4.25v3.95h4.74v1.19h-6.15v-10.94h5.91v1.18h-4.5v3.46h4.25V576.82z"/>
</g>
<g>
	<path class="st3" d="M147.95,403.06V414h-1.41v-10.94H147.95z"/>
	<path class="st3" d="M159.64,409.2c-0.08-1.53-0.18-3.36-0.16-4.72h-0.05c-0.37,1.28-0.83,2.65-1.38,4.16l-1.93,5.31h-1.07
		l-1.77-5.21c-0.52-1.54-0.96-2.96-1.27-4.25h-0.03c-0.03,1.36-0.11,3.2-0.21,4.84l-0.29,4.69h-1.35l0.76-10.94h1.8l1.87,5.29
		c0.45,1.35,0.83,2.55,1.1,3.69h0.05c0.28-1.1,0.67-2.31,1.15-3.69l1.95-5.29h1.8l0.68,10.94h-1.38L159.64,409.2z"/>
	<path class="st3" d="M165.08,410.56l-1.14,3.44h-1.46l3.72-10.94h1.7l3.73,10.94h-1.51l-1.17-3.44H165.08z M168.67,409.46
		l-1.07-3.15c-0.24-0.71-0.41-1.36-0.57-2h-0.03c-0.16,0.65-0.34,1.31-0.55,1.98l-1.07,3.17H168.67z"/>
	<path class="st3" d="M181.33,413.52c-0.63,0.23-1.88,0.6-3.36,0.6c-1.66,0-3.02-0.42-4.09-1.44c-0.94-0.91-1.53-2.37-1.53-4.08
		c0.02-3.26,2.26-5.65,5.93-5.65c1.27,0,2.26,0.28,2.73,0.5l-0.34,1.15c-0.58-0.26-1.31-0.47-2.42-0.47c-2.66,0-4.4,1.66-4.4,4.4
		c0,2.78,1.67,4.42,4.22,4.42c0.93,0,1.56-0.13,1.88-0.29v-3.26h-2.22v-1.14h3.6V413.52z"/>
	<path class="st3" d="M189.15,408.87h-4.25v3.95h4.74V414h-6.15v-10.94h5.91v1.19h-4.5v3.46h4.25V408.87z"/>
</g>
<g>
	<path class="st3" d="M613.29,542.35v10.94h-1.41v-10.94H613.29z"/>
	<path class="st3" d="M624.98,548.48c-0.08-1.53-0.18-3.36-0.16-4.72h-0.05c-0.37,1.28-0.83,2.65-1.38,4.16l-1.93,5.31h-1.07
		l-1.77-5.21c-0.52-1.54-0.96-2.96-1.27-4.25h-0.03c-0.03,1.36-0.11,3.2-0.21,4.84l-0.29,4.69h-1.35l0.76-10.94h1.8l1.87,5.29
		c0.45,1.35,0.83,2.55,1.1,3.69h0.05c0.28-1.1,0.67-2.3,1.15-3.69l1.95-5.29h1.8l0.68,10.94h-1.38L624.98,548.48z"/>
	<path class="st3" d="M630.42,549.85l-1.14,3.44h-1.46l3.72-10.94h1.7l3.73,10.94h-1.51l-1.17-3.44H630.42z M634.01,548.74
		l-1.07-3.15c-0.24-0.71-0.41-1.36-0.57-2h-0.03c-0.16,0.65-0.34,1.32-0.55,1.98l-1.07,3.17H634.01z"/>
	<path class="st3" d="M646.67,552.8c-0.63,0.23-1.88,0.6-3.36,0.6c-1.66,0-3.02-0.42-4.09-1.44c-0.94-0.91-1.53-2.37-1.53-4.08
		c0.02-3.26,2.26-5.65,5.93-5.65c1.27,0,2.26,0.28,2.73,0.5l-0.34,1.15c-0.58-0.26-1.32-0.47-2.42-0.47c-2.66,0-4.4,1.66-4.4,4.4
		c0,2.78,1.67,4.42,4.22,4.42c0.92,0,1.56-0.13,1.88-0.29v-3.26h-2.22v-1.14h3.6V552.8z"/>
	<path class="st3" d="M654.5,548.16h-4.25v3.95h4.74v1.19h-6.15v-10.94h5.91v1.18h-4.5v3.46h4.25V548.16z"/>
</g>
<g>
	<path class="st3" d="M736.07,539.27c0.86-0.13,1.88-0.23,3-0.23c2.03,0,3.47,0.47,4.43,1.36c0.97,0.89,1.54,2.16,1.54,3.93
		c0,1.79-0.55,3.25-1.57,4.25c-1.02,1.02-2.71,1.58-4.84,1.58c-1.01,0-1.85-0.05-2.57-0.13V539.27z M737.48,548.94
		c0.36,0.06,0.88,0.08,1.43,0.08c3.02,0,4.66-1.69,4.66-4.64c0.02-2.58-1.44-4.22-4.43-4.22c-0.73,0-1.28,0.06-1.66,0.15V548.94z"/>
	<path class="st3" d="M752.55,544.93h-4.25v3.94h4.74v1.19h-6.15v-10.94h5.91v1.18h-4.5v3.46h4.25V544.93z"/>
	<path class="st3" d="M754.67,548.34c0.63,0.39,1.56,0.71,2.53,0.71c1.45,0,2.29-0.76,2.29-1.87c0-1.02-0.58-1.61-2.06-2.17
		c-1.79-0.63-2.89-1.56-2.89-3.1c0-1.7,1.41-2.97,3.54-2.97c1.12,0,1.93,0.26,2.42,0.54l-0.39,1.15c-0.36-0.2-1.09-0.52-2.08-0.52
		c-1.49,0-2.06,0.89-2.06,1.64c0,1.02,0.67,1.53,2.18,2.11c1.85,0.71,2.79,1.61,2.79,3.21c0,1.69-1.25,3.15-3.83,3.15
		c-1.06,0-2.21-0.31-2.79-0.7L754.67,548.34z"/>
	<path class="st3" d="M770.52,549.7c-0.52,0.26-1.56,0.52-2.89,0.52c-3.08,0-5.41-1.95-5.41-5.54c0-3.43,2.32-5.75,5.71-5.75
		c1.36,0,2.22,0.29,2.6,0.49l-0.34,1.15c-0.54-0.26-1.3-0.46-2.21-0.46c-2.56,0-4.27,1.64-4.27,4.51c0,2.68,1.54,4.4,4.21,4.4
		c0.86,0,1.74-0.18,2.31-0.46L770.52,549.7z"/>
	<path class="st3" d="M772.29,539.27c0.71-0.15,1.74-0.23,2.71-0.23c1.51,0,2.48,0.28,3.17,0.89c0.55,0.49,0.86,1.23,0.86,2.08
		c0,1.45-0.91,2.4-2.06,2.79v0.05c0.84,0.29,1.35,1.07,1.61,2.21c0.36,1.53,0.62,2.58,0.84,3h-1.46c-0.18-0.31-0.42-1.25-0.73-2.61
		c-0.32-1.51-0.91-2.08-2.19-2.13h-1.33v4.74h-1.41V539.27z M773.7,544.25h1.44c1.51,0,2.47-0.83,2.47-2.08
		c0-1.41-1.02-2.03-2.52-2.05c-0.68,0-1.17,0.07-1.4,0.13V544.25z"/>
	<path class="st3" d="M782.44,539.12v10.94h-1.41v-10.94H782.44z"/>
	<path class="st3" d="M784.9,539.25c0.68-0.11,1.58-0.21,2.71-0.21c1.4,0,2.42,0.32,3.07,0.91c0.6,0.52,0.96,1.31,0.96,2.29
		c0,0.99-0.29,1.77-0.84,2.34c-0.75,0.79-1.96,1.2-3.34,1.2c-0.42,0-0.81-0.02-1.14-0.1v4.38h-1.41V539.25z M786.32,544.53
		c0.31,0.08,0.7,0.11,1.17,0.11c1.71,0,2.74-0.83,2.74-2.34c0-1.44-1.02-2.14-2.58-2.14c-0.62,0-1.09,0.05-1.33,0.11V544.53z"/>
	<path class="st3" d="M795.62,540.32h-3.33v-1.2h8.1v1.2h-3.34v9.74h-1.43V540.32z"/>
	<path class="st3" d="M803.02,539.12v10.94h-1.41v-10.94H803.02z"/>
	<path class="st3" d="M814.84,544.48c0,3.77-2.29,5.76-5.08,5.76c-2.89,0-4.92-2.24-4.92-5.55c0-3.47,2.16-5.75,5.08-5.75
		C812.91,538.94,814.84,541.23,814.84,544.48z M806.35,544.66c0,2.34,1.27,4.43,3.49,4.43c2.24,0,3.51-2.06,3.51-4.55
		c0-2.17-1.14-4.45-3.49-4.45C807.52,540.09,806.35,542.25,806.35,544.66z"/>
	<path class="st3" d="M816.68,550.06v-10.94h1.54l3.51,5.54c0.81,1.28,1.44,2.44,1.96,3.56l0.03-0.02c-0.13-1.46-0.16-2.79-0.16-4.5
		v-4.58h1.33v10.94h-1.43l-3.47-5.55c-0.76-1.22-1.49-2.47-2.05-3.65l-0.05,0.02c0.08,1.38,0.11,2.7,0.11,4.51v4.68H816.68z"/>
</g>
<g>
	<path class="st3" d="M613.29,670.84v10.94h-1.41v-10.94H613.29z"/>
	<path class="st3" d="M624.98,676.97c-0.08-1.53-0.18-3.36-0.16-4.72h-0.05c-0.37,1.28-0.83,2.65-1.38,4.16l-1.93,5.31h-1.07
		l-1.77-5.21c-0.52-1.54-0.96-2.96-1.27-4.25h-0.03c-0.03,1.36-0.11,3.2-0.21,4.84l-0.29,4.69h-1.35l0.76-10.94h1.8l1.87,5.29
		c0.45,1.35,0.83,2.55,1.1,3.68h0.05c0.28-1.1,0.67-2.3,1.15-3.68l1.95-5.29h1.8l0.68,10.94h-1.38L624.98,676.97z"/>
	<path class="st3" d="M630.42,678.34l-1.14,3.44h-1.46l3.72-10.94h1.7l3.73,10.94h-1.51l-1.17-3.44H630.42z M634.01,677.23
		l-1.07-3.15c-0.24-0.71-0.41-1.36-0.57-2h-0.03c-0.16,0.65-0.34,1.31-0.55,1.98l-1.07,3.17H634.01z"/>
	<path class="st3" d="M646.67,681.29c-0.63,0.23-1.88,0.6-3.36,0.6c-1.66,0-3.02-0.42-4.09-1.44c-0.94-0.91-1.53-2.37-1.53-4.08
		c0.02-3.26,2.26-5.65,5.93-5.65c1.27,0,2.26,0.28,2.73,0.5l-0.34,1.15c-0.58-0.26-1.32-0.47-2.42-0.47c-2.66,0-4.4,1.66-4.4,4.4
		c0,2.78,1.67,4.42,4.22,4.42c0.92,0,1.56-0.13,1.88-0.29v-3.26h-2.22v-1.14h3.6V681.29z"/>
	<path class="st3" d="M654.5,676.65h-4.25v3.94h4.74v1.19h-6.15v-10.94h5.91v1.18h-4.5v3.46h4.25V676.65z"/>
</g>
<g>
	<path class="st3" d="M117.95,643.25c0.43-0.06,0.94-0.11,1.5-0.11c1.01,0,1.74,0.24,2.22,0.68c0.49,0.45,0.77,1.08,0.77,1.96
		c0,0.89-0.28,1.62-0.79,2.13c-0.51,0.51-1.36,0.79-2.42,0.79c-0.5,0-0.93-0.02-1.28-0.07V643.25z M118.65,648.09
		c0.18,0.03,0.44,0.04,0.71,0.04c1.51,0,2.33-0.84,2.33-2.32c0.01-1.29-0.72-2.11-2.22-2.11c-0.37,0-0.64,0.03-0.83,0.07V648.09z"/>
	<path class="st3" d="M126.18,646.08h-2.13v1.97h2.37v0.59h-3.08v-5.47h2.95v0.59h-2.25v1.73h2.13V646.08z"/>
	<path class="st3" d="M127.25,647.79c0.32,0.19,0.78,0.36,1.27,0.36c0.72,0,1.14-0.38,1.14-0.93c0-0.51-0.29-0.8-1.03-1.09
		c-0.89-0.32-1.44-0.78-1.44-1.55c0-0.85,0.71-1.49,1.77-1.49c0.56,0,0.97,0.13,1.21,0.27l-0.19,0.58c-0.18-0.1-0.54-0.26-1.04-0.26
		c-0.75,0-1.03,0.45-1.03,0.82c0,0.51,0.33,0.76,1.09,1.06c0.93,0.36,1.4,0.8,1.4,1.61c0,0.84-0.62,1.57-1.92,1.57
		c-0.53,0-1.1-0.15-1.4-0.35L127.25,647.79z"/>
	<path class="st3" d="M135.17,648.47c-0.26,0.13-0.78,0.26-1.44,0.26c-1.54,0-2.7-0.97-2.7-2.77c0-1.71,1.16-2.87,2.86-2.87
		c0.68,0,1.11,0.15,1.3,0.24l-0.17,0.58c-0.27-0.13-0.65-0.23-1.1-0.23c-1.28,0-2.13,0.82-2.13,2.26c0,1.34,0.77,2.2,2.1,2.2
		c0.43,0,0.87-0.09,1.15-0.23L135.17,648.47z"/>
	<path class="st3" d="M136.06,643.25c0.36-0.07,0.87-0.11,1.36-0.11c0.75,0,1.24,0.14,1.58,0.45c0.28,0.24,0.43,0.62,0.43,1.04
		c0,0.72-0.45,1.2-1.03,1.4v0.02c0.42,0.15,0.67,0.54,0.8,1.1c0.18,0.76,0.31,1.29,0.42,1.5h-0.73c-0.09-0.15-0.21-0.62-0.37-1.31
		c-0.16-0.75-0.46-1.04-1.1-1.06h-0.67v2.37h-0.71V643.25z M136.76,645.74h0.72c0.75,0,1.23-0.41,1.23-1.04
		c0-0.71-0.51-1.01-1.26-1.02c-0.34,0-0.58,0.03-0.7,0.06V645.74z"/>
	<path class="st3" d="M141.13,643.18v5.47h-0.71v-5.47H141.13z"/>
	<path class="st3" d="M142.36,643.24c0.34-0.06,0.79-0.11,1.36-0.11c0.7,0,1.21,0.16,1.53,0.45c0.3,0.26,0.48,0.66,0.48,1.14
		c0,0.5-0.15,0.88-0.42,1.17c-0.37,0.4-0.98,0.6-1.67,0.6c-0.21,0-0.41-0.01-0.57-0.05v2.19h-0.71V643.24z M143.07,645.88
		c0.15,0.04,0.35,0.06,0.58,0.06c0.85,0,1.37-0.41,1.37-1.17c0-0.72-0.51-1.07-1.29-1.07c-0.31,0-0.54,0.02-0.67,0.06V645.88z"/>
	<path class="st3" d="M147.72,643.78h-1.66v-0.6h4.05v0.6h-1.67v4.87h-0.71V643.78z"/>
	<path class="st3" d="M151.42,643.18v5.47h-0.71v-5.47H151.42z"/>
	<path class="st3" d="M157.33,645.86c0,1.88-1.14,2.88-2.54,2.88c-1.44,0-2.46-1.12-2.46-2.78c0-1.74,1.08-2.87,2.54-2.87
		C156.37,643.09,157.33,644.23,157.33,645.86z M153.09,645.95c0,1.17,0.63,2.22,1.75,2.22c1.12,0,1.75-1.03,1.75-2.27
		c0-1.09-0.57-2.22-1.75-2.22C153.67,643.67,153.09,644.75,153.09,645.95z"/>
	<path class="st3" d="M158.25,648.65v-5.47h0.77l1.75,2.77c0.41,0.64,0.72,1.22,0.98,1.78l0.02-0.01c-0.06-0.73-0.08-1.4-0.08-2.25
		v-2.29h0.67v5.47h-0.71l-1.74-2.78c-0.38-0.61-0.75-1.23-1.02-1.83l-0.02,0.01c0.04,0.69,0.06,1.35,0.06,2.26v2.34H158.25z"/>
</g>
<g>
	<path class="st3" d="M73.69,746.49c0.34-0.06,0.79-0.11,1.36-0.11c0.7,0,1.21,0.16,1.53,0.45c0.3,0.26,0.48,0.66,0.48,1.14
		c0,0.5-0.15,0.88-0.42,1.17c-0.37,0.4-0.98,0.6-1.67,0.6c-0.21,0-0.41-0.01-0.57-0.05v2.19h-0.71V746.49z M74.4,749.13
		c0.15,0.04,0.35,0.06,0.58,0.06c0.85,0,1.37-0.41,1.37-1.17c0-0.72-0.51-1.07-1.29-1.07c-0.31,0-0.54,0.02-0.67,0.06V749.13z"/>
	<path class="st3" d="M78.01,746.5c0.36-0.07,0.87-0.11,1.36-0.11c0.75,0,1.24,0.14,1.58,0.45c0.28,0.24,0.43,0.62,0.43,1.04
		c0,0.72-0.45,1.2-1.03,1.4v0.02c0.42,0.15,0.67,0.54,0.8,1.1c0.18,0.76,0.31,1.29,0.42,1.5h-0.73c-0.09-0.15-0.21-0.62-0.37-1.31
		c-0.16-0.75-0.45-1.04-1.1-1.06h-0.67v2.37h-0.71V746.5z M78.72,748.99h0.72c0.76,0,1.23-0.41,1.23-1.04
		c0-0.71-0.51-1.01-1.26-1.02c-0.34,0-0.58,0.03-0.7,0.06V748.99z"/>
	<path class="st3" d="M83.08,746.42v5.47h-0.71v-5.47H83.08z"/>
	<path class="st3" d="M88.14,751.72c-0.26,0.13-0.78,0.26-1.44,0.26c-1.54,0-2.7-0.97-2.7-2.77c0-1.71,1.16-2.87,2.86-2.87
		c0.68,0,1.11,0.15,1.3,0.24l-0.17,0.58c-0.27-0.13-0.65-0.23-1.1-0.23c-1.28,0-2.13,0.82-2.13,2.26c0,1.34,0.77,2.2,2.1,2.2
		c0.43,0,0.87-0.09,1.15-0.23L88.14,751.72z"/>
	<path class="st3" d="M91.86,749.33h-2.13v1.97h2.37v0.59h-3.08v-5.47h2.95v0.59h-2.25v1.73h2.13V749.33z"/>
	<path class="st3" d="M136.87,746.42v5.47h-0.71v-5.47H136.87z"/>
	<path class="st3" d="M140.53,747.03h-1.66v-0.6h4.05v0.6h-1.67v4.87h-0.71V747.03z"/>
	<path class="st3" d="M146.36,749.33h-2.13v1.97h2.37v0.59h-3.08v-5.47h2.96v0.59h-2.25v1.73h2.13V749.33z"/>
	<path class="st3" d="M152.13,749.49c-0.04-0.76-0.09-1.68-0.08-2.36h-0.02c-0.19,0.64-0.41,1.32-0.69,2.08l-0.97,2.65h-0.54
		l-0.88-2.61c-0.26-0.77-0.48-1.48-0.63-2.13h-0.02c-0.02,0.68-0.06,1.6-0.11,2.42l-0.15,2.35h-0.67l0.38-5.47h0.9l0.93,2.65
		c0.23,0.67,0.41,1.27,0.55,1.84h0.02c0.14-0.55,0.33-1.15,0.58-1.84l0.97-2.65h0.9l0.34,5.47h-0.69L152.13,749.49z"/>
	<path class="st3" d="M153.95,751.04c0.32,0.19,0.78,0.36,1.27,0.36c0.72,0,1.15-0.38,1.15-0.93c0-0.51-0.29-0.8-1.03-1.09
		c-0.89-0.32-1.44-0.78-1.44-1.55c0-0.85,0.71-1.49,1.77-1.49c0.56,0,0.97,0.13,1.21,0.27l-0.19,0.58c-0.18-0.1-0.54-0.26-1.04-0.26
		c-0.75,0-1.03,0.45-1.03,0.82c0,0.51,0.33,0.76,1.09,1.06c0.93,0.36,1.4,0.8,1.4,1.61c0,0.84-0.62,1.58-1.92,1.58
		c-0.53,0-1.1-0.15-1.4-0.35L153.95,751.04z"/>
	<path class="st3" d="M207.62,751.72c-0.26,0.13-0.78,0.26-1.44,0.26c-1.54,0-2.7-0.97-2.7-2.77c0-1.71,1.16-2.87,2.86-2.87
		c0.68,0,1.11,0.15,1.3,0.24l-0.17,0.58c-0.27-0.13-0.65-0.23-1.1-0.23c-1.28,0-2.13,0.82-2.13,2.26c0,1.34,0.77,2.2,2.1,2.2
		c0.43,0,0.87-0.09,1.15-0.23L207.62,751.72z"/>
	<path class="st3" d="M209.42,750.18l-0.57,1.72h-0.73l1.86-5.47h0.85l1.87,5.47h-0.75l-0.58-1.72H209.42z M211.21,749.62
		l-0.54-1.57c-0.12-0.36-0.2-0.68-0.28-1h-0.02c-0.08,0.33-0.17,0.66-0.28,0.99l-0.54,1.58H211.21z"/>
	<path class="st3" d="M213.5,746.5c0.36-0.07,0.87-0.11,1.36-0.11c0.75,0,1.24,0.14,1.58,0.45c0.28,0.24,0.43,0.62,0.43,1.04
		c0,0.72-0.45,1.2-1.03,1.4v0.02c0.42,0.15,0.67,0.54,0.8,1.1c0.18,0.76,0.31,1.29,0.42,1.5h-0.73c-0.09-0.15-0.21-0.62-0.37-1.31
		c-0.16-0.75-0.45-1.04-1.1-1.06h-0.67v2.37h-0.71V746.5z M214.21,748.99h0.72c0.76,0,1.23-0.41,1.23-1.04
		c0-0.71-0.51-1.01-1.26-1.02c-0.34,0-0.58,0.03-0.7,0.06V748.99z"/>
	<path class="st3" d="M218.98,747.03h-1.66v-0.6h4.05v0.6h-1.67v4.87h-0.71V747.03z"/>
</g>
<g>
	<path class="st3" d="M187.6,483.25c0.31-0.06,0.8-0.11,1.29-0.11c0.71,0,1.16,0.12,1.5,0.4c0.28,0.21,0.46,0.54,0.46,0.97
		c0,0.53-0.35,0.99-0.93,1.2v0.02c0.52,0.13,1.13,0.56,1.13,1.37c0,0.47-0.19,0.83-0.46,1.1c-0.38,0.35-1,0.51-1.89,0.51
		c-0.49,0-0.86-0.03-1.1-0.07V483.25z M188.31,485.49h0.64c0.75,0,1.19-0.39,1.19-0.92c0-0.64-0.49-0.89-1.2-0.89
		c-0.32,0-0.51,0.02-0.62,0.05V485.49z M188.31,488.11c0.14,0.02,0.34,0.03,0.59,0.03c0.73,0,1.4-0.27,1.4-1.06
		c0-0.75-0.64-1.06-1.41-1.06h-0.58V488.11z"/>
	<path class="st3" d="M192.71,483.17v3.24c0,1.23,0.54,1.75,1.27,1.75c0.81,0,1.33-0.54,1.33-1.75v-3.24h0.71v3.19
		c0,1.68-0.88,2.37-2.07,2.37c-1.12,0-1.96-0.64-1.96-2.34v-3.22H192.71z"/>
	<path class="st3" d="M198.47,488.64v-2.32l-1.73-3.15h0.8l0.77,1.51c0.21,0.41,0.37,0.75,0.54,1.13h0.02
		c0.15-0.36,0.34-0.71,0.55-1.13l0.79-1.51h0.8l-1.83,3.14v2.33H198.47z"/>
</g>
<g>
	<path class="st3" d="M187.6,641.9c0.31-0.06,0.8-0.11,1.29-0.11c0.71,0,1.16,0.12,1.5,0.4c0.28,0.21,0.46,0.54,0.46,0.97
		c0,0.53-0.35,0.99-0.93,1.2v0.02c0.52,0.13,1.13,0.56,1.13,1.37c0,0.47-0.19,0.83-0.46,1.1c-0.38,0.35-1,0.51-1.89,0.51
		c-0.49,0-0.86-0.03-1.1-0.07V641.9z M188.31,644.14h0.64c0.75,0,1.19-0.39,1.19-0.92c0-0.64-0.49-0.89-1.2-0.89
		c-0.32,0-0.51,0.02-0.62,0.05V644.14z M188.31,646.76c0.14,0.02,0.34,0.03,0.59,0.03c0.73,0,1.4-0.27,1.4-1.06
		c0-0.75-0.64-1.06-1.41-1.06h-0.58V646.76z"/>
	<path class="st3" d="M192.71,641.82v3.24c0,1.23,0.54,1.75,1.27,1.75c0.81,0,1.33-0.54,1.33-1.75v-3.24h0.71v3.19
		c0,1.68-0.88,2.37-2.07,2.37c-1.12,0-1.96-0.64-1.96-2.34v-3.22H192.71z"/>
	<path class="st3" d="M198.47,647.3v-2.32l-1.73-3.15h0.8l0.77,1.51c0.21,0.41,0.37,0.75,0.54,1.13h0.02
		c0.15-0.36,0.34-0.71,0.55-1.13l0.79-1.51h0.8l-1.83,3.14v2.33H198.47z"/>
</g>
<g>
	<path class="st3" d="M119.85,483.25c0.43-0.06,0.94-0.11,1.5-0.11c1.01,0,1.74,0.24,2.22,0.68c0.49,0.45,0.77,1.08,0.77,1.96
		c0,0.89-0.28,1.62-0.79,2.13c-0.51,0.51-1.36,0.79-2.42,0.79c-0.5,0-0.93-0.02-1.28-0.07V483.25z M120.55,488.08
		c0.18,0.03,0.44,0.04,0.71,0.04c1.51,0,2.33-0.84,2.33-2.32c0.01-1.29-0.72-2.11-2.22-2.11c-0.37,0-0.64,0.03-0.83,0.07V488.08z"/>
	<path class="st3" d="M128.09,486.08h-2.13v1.97h2.37v0.59h-3.08v-5.47h2.95v0.59h-2.25v1.73h2.13V486.08z"/>
	<path class="st3" d="M129.15,487.78c0.32,0.19,0.78,0.36,1.27,0.36c0.72,0,1.14-0.38,1.14-0.93c0-0.51-0.29-0.8-1.03-1.09
		c-0.89-0.32-1.44-0.78-1.44-1.55c0-0.85,0.71-1.49,1.77-1.49c0.56,0,0.97,0.13,1.21,0.27l-0.19,0.58c-0.18-0.1-0.54-0.26-1.04-0.26
		c-0.75,0-1.03,0.45-1.03,0.82c0,0.51,0.33,0.76,1.09,1.06c0.93,0.36,1.4,0.8,1.4,1.61c0,0.84-0.62,1.57-1.92,1.57
		c-0.53,0-1.1-0.15-1.4-0.35L129.15,487.78z"/>
	<path class="st3" d="M137.07,488.47c-0.26,0.13-0.78,0.26-1.44,0.26c-1.54,0-2.7-0.97-2.7-2.77c0-1.71,1.16-2.87,2.86-2.87
		c0.68,0,1.11,0.15,1.3,0.24l-0.17,0.58c-0.27-0.13-0.65-0.23-1.1-0.23c-1.28,0-2.13,0.82-2.13,2.26c0,1.34,0.77,2.2,2.1,2.2
		c0.43,0,0.87-0.09,1.15-0.23L137.07,488.47z"/>
	<path class="st3" d="M137.96,483.25c0.36-0.07,0.87-0.11,1.36-0.11c0.75,0,1.24,0.14,1.58,0.45c0.28,0.24,0.43,0.62,0.43,1.04
		c0,0.72-0.45,1.2-1.03,1.4v0.02c0.42,0.15,0.67,0.54,0.8,1.1c0.18,0.76,0.31,1.29,0.42,1.5h-0.73c-0.09-0.15-0.21-0.62-0.37-1.31
		c-0.16-0.75-0.46-1.04-1.1-1.06h-0.67v2.37h-0.71V483.25z M138.66,485.74h0.72c0.75,0,1.23-0.41,1.23-1.04
		c0-0.71-0.51-1.01-1.26-1.02c-0.34,0-0.58,0.03-0.7,0.06V485.74z"/>
	<path class="st3" d="M143.03,483.17v5.47h-0.71v-5.47H143.03z"/>
	<path class="st3" d="M144.27,483.24c0.34-0.06,0.79-0.11,1.36-0.11c0.7,0,1.21,0.16,1.53,0.45c0.3,0.26,0.48,0.66,0.48,1.14
		c0,0.5-0.15,0.88-0.42,1.17c-0.37,0.4-0.98,0.6-1.67,0.6c-0.21,0-0.41-0.01-0.57-0.05v2.19h-0.71V483.24z M144.97,485.88
		c0.15,0.04,0.35,0.06,0.58,0.06c0.85,0,1.37-0.41,1.37-1.17c0-0.72-0.51-1.07-1.29-1.07c-0.31,0-0.54,0.02-0.67,0.06V485.88z"/>
	<path class="st3" d="M149.62,483.77h-1.66v-0.6h4.05v0.6h-1.67v4.87h-0.71V483.77z"/>
	<path class="st3" d="M153.32,483.17v5.47h-0.71v-5.47H153.32z"/>
	<path class="st3" d="M159.23,485.85c0,1.88-1.14,2.88-2.54,2.88c-1.44,0-2.46-1.12-2.46-2.78c0-1.74,1.08-2.87,2.54-2.87
		C158.27,483.08,159.23,484.23,159.23,485.85z M154.99,485.94c0,1.17,0.63,2.22,1.75,2.22c1.12,0,1.75-1.03,1.75-2.27
		c0-1.09-0.57-2.22-1.75-2.22C155.57,483.66,154.99,484.74,154.99,485.94z"/>
	<path class="st3" d="M160.15,488.64v-5.47h0.77l1.75,2.77c0.41,0.64,0.72,1.22,0.98,1.78l0.02-0.01c-0.06-0.73-0.08-1.4-0.08-2.25
		v-2.29h0.67v5.47h-0.71l-1.74-2.78c-0.38-0.61-0.75-1.23-1.02-1.83l-0.02,0.01c0.04,0.69,0.06,1.35,0.06,2.26v2.34H160.15z"/>
</g>
<g>
	<path class="st3" d="M926.36,605.48c0.31-0.06,0.79-0.11,1.29-0.11c0.71,0,1.16,0.12,1.5,0.4c0.28,0.21,0.46,0.54,0.46,0.97
		c0,0.53-0.35,0.99-0.93,1.2v0.02c0.52,0.13,1.13,0.56,1.13,1.37c0,0.47-0.19,0.83-0.46,1.1c-0.38,0.35-1,0.51-1.89,0.51
		c-0.49,0-0.86-0.03-1.1-0.07V605.48z M927.07,607.72h0.64c0.75,0,1.18-0.39,1.18-0.92c0-0.64-0.49-0.89-1.2-0.89
		c-0.33,0-0.51,0.02-0.62,0.05V607.72z M927.07,610.34c0.14,0.02,0.34,0.03,0.59,0.03c0.73,0,1.4-0.27,1.4-1.06
		c0-0.75-0.64-1.06-1.41-1.06h-0.58V610.34z"/>
	<path class="st3" d="M931.47,605.41v3.24c0,1.23,0.54,1.75,1.27,1.75c0.81,0,1.33-0.54,1.33-1.75v-3.24h0.71v3.19
		c0,1.68-0.88,2.37-2.07,2.37c-1.12,0-1.96-0.64-1.96-2.34v-3.22H931.47z"/>
	<path class="st3" d="M937.23,610.88v-2.32l-1.73-3.15h0.8l0.77,1.51c0.21,0.41,0.37,0.75,0.54,1.13h0.02
		c0.15-0.36,0.34-0.71,0.55-1.13l0.79-1.51h0.8l-1.83,3.14v2.33H937.23z"/>
</g>
<g>
	<path class="st3" d="M598.83,472.97h0.71v4.88h2.34v0.59h-3.04V472.97z"/>
	<path class="st3" d="M607.02,475.65c0,1.88-1.14,2.88-2.54,2.88c-1.45,0-2.46-1.12-2.46-2.78c0-1.74,1.08-2.87,2.54-2.87
		C606.05,472.88,607.02,474.02,607.02,475.65z M602.77,475.74c0,1.17,0.63,2.22,1.75,2.22c1.12,0,1.75-1.03,1.75-2.27
		c0-1.09-0.57-2.22-1.75-2.22C603.36,473.46,602.77,474.54,602.77,475.74z"/>
	<path class="st3" d="M612.1,478.2c-0.32,0.11-0.94,0.3-1.68,0.3c-0.83,0-1.51-0.21-2.04-0.72c-0.47-0.45-0.76-1.19-0.76-2.04
		c0.01-1.63,1.13-2.83,2.96-2.83c0.63,0,1.13,0.14,1.36,0.25l-0.17,0.58c-0.29-0.13-0.66-0.24-1.21-0.24c-1.33,0-2.2,0.83-2.2,2.2
		c0,1.39,0.84,2.21,2.11,2.21c0.46,0,0.78-0.06,0.94-0.15v-1.63h-1.11v-0.57h1.8V478.2z"/>
	<path class="st3" d="M617.86,475.65c0,1.88-1.14,2.88-2.54,2.88c-1.45,0-2.46-1.12-2.46-2.78c0-1.74,1.08-2.87,2.54-2.87
		C616.89,472.88,617.86,474.02,617.86,475.65z M613.61,475.74c0,1.17,0.63,2.22,1.75,2.22c1.12,0,1.75-1.03,1.75-2.27
		c0-1.09-0.57-2.22-1.75-2.22C614.2,473.46,613.61,474.54,613.61,475.74z"/>
</g>
<g>
	<path class="st3" d="M41.4,411.36h0.71v4.88h2.34v0.59H41.4V411.36z"/>
	<path class="st3" d="M49.59,414.03c0,1.88-1.14,2.88-2.54,2.88c-1.44,0-2.46-1.12-2.46-2.78c0-1.74,1.08-2.87,2.54-2.87
		C48.62,411.27,49.59,412.41,49.59,414.03z M45.34,414.12c0,1.17,0.63,2.22,1.75,2.22c1.12,0,1.75-1.03,1.75-2.27
		c0-1.09-0.57-2.22-1.75-2.22C45.93,411.84,45.34,412.92,45.34,414.12z"/>
	<path class="st3" d="M54.67,416.58c-0.32,0.11-0.94,0.3-1.68,0.3c-0.83,0-1.51-0.21-2.05-0.72c-0.47-0.45-0.76-1.19-0.76-2.04
		c0.01-1.63,1.13-2.83,2.96-2.83c0.63,0,1.13,0.14,1.36,0.25l-0.17,0.58c-0.29-0.13-0.66-0.24-1.21-0.24c-1.33,0-2.2,0.83-2.2,2.2
		c0,1.39,0.84,2.21,2.11,2.21c0.46,0,0.78-0.06,0.94-0.15v-1.63h-1.11v-0.57h1.8V416.58z"/>
	<path class="st3" d="M60.43,414.03c0,1.88-1.14,2.88-2.54,2.88c-1.44,0-2.46-1.12-2.46-2.78c0-1.74,1.08-2.87,2.54-2.87
		C59.46,411.27,60.43,412.41,60.43,414.03z M56.18,414.12c0,1.17,0.63,2.22,1.75,2.22c1.12,0,1.75-1.03,1.75-2.27
		c0-1.09-0.57-2.22-1.75-2.22C56.77,411.84,56.18,412.92,56.18,414.12z"/>
</g>
<g>
	<path class="st3" d="M49.39,493.36c0.19-0.32,0.36-0.78,0.36-1.27c0-0.72-0.38-1.14-0.93-1.14c-0.51,0-0.8,0.29-1.09,1.03
		c-0.32,0.89-0.78,1.44-1.55,1.44c-0.85,0-1.49-0.71-1.49-1.77c0-0.56,0.13-0.97,0.27-1.21l0.58,0.19c-0.1,0.18-0.26,0.54-0.26,1.04
		c0,0.75,0.45,1.03,0.82,1.03c0.51,0,0.76-0.33,1.06-1.09c0.36-0.93,0.8-1.4,1.61-1.4c0.84,0,1.57,0.62,1.57,1.92
		c0,0.53-0.15,1.1-0.35,1.4L49.39,493.36z"/>
	<path class="st3" d="M45.38,488.22v1.66h-0.6v-4.05h0.6v1.67h4.87v0.71H45.38z"/>
	<path class="st3" d="M50.25,483.78h-2.32l-3.15,1.73v-0.8l1.51-0.77c0.41-0.21,0.75-0.37,1.13-0.54v-0.02
		c-0.36-0.15-0.71-0.34-1.13-0.55l-1.51-0.79v-0.8l3.14,1.83h2.33V483.78z"/>
	<path class="st3" d="M44.78,480.67v-0.71h4.88v-2.34h0.59v3.04H44.78z"/>
	<path class="st3" d="M47.69,474v2.13h1.97v-2.37h0.59v3.08h-5.47v-2.96h0.59v2.25h1.73V474H47.69z"/>
</g>
<g>
	<path class="st3" d="M49.39,595.75c0.19-0.32,0.36-0.78,0.36-1.27c0-0.72-0.38-1.14-0.93-1.14c-0.51,0-0.8,0.29-1.09,1.03
		c-0.32,0.89-0.78,1.44-1.55,1.44c-0.85,0-1.49-0.71-1.49-1.77c0-0.56,0.13-0.97,0.27-1.21l0.58,0.19c-0.1,0.18-0.26,0.54-0.26,1.04
		c0,0.75,0.45,1.03,0.82,1.03c0.51,0,0.76-0.33,1.06-1.09c0.36-0.92,0.8-1.4,1.61-1.4c0.84,0,1.57,0.62,1.57,1.92
		c0,0.53-0.15,1.1-0.35,1.4L49.39,595.75z"/>
	<path class="st3" d="M45.38,590.61v1.66h-0.6v-4.05h0.6v1.67h4.87v0.71H45.38z"/>
	<path class="st3" d="M50.25,586.17h-2.32l-3.15,1.73v-0.8l1.51-0.77c0.41-0.21,0.75-0.37,1.13-0.54v-0.02
		c-0.36-0.15-0.71-0.34-1.13-0.55l-1.51-0.79v-0.8l3.14,1.83h2.33V586.17z"/>
	<path class="st3" d="M44.78,583.05v-0.71h4.88v-2.34h0.59v3.04H44.78z"/>
	<path class="st3" d="M47.69,576.39v2.13h1.97v-2.37h0.59v3.08h-5.47v-2.95h0.59v2.25h1.73v-2.13H47.69z"/>
</g>
<g>
	<path class="st3" d="M49.39,696.78c0.19-0.32,0.36-0.78,0.36-1.27c0-0.72-0.38-1.14-0.93-1.14c-0.51,0-0.8,0.29-1.09,1.03
		c-0.32,0.89-0.78,1.45-1.55,1.45c-0.85,0-1.49-0.71-1.49-1.77c0-0.56,0.13-0.97,0.27-1.21l0.58,0.19c-0.1,0.18-0.26,0.54-0.26,1.04
		c0,0.75,0.45,1.03,0.82,1.03c0.51,0,0.76-0.33,1.06-1.09c0.36-0.93,0.8-1.4,1.61-1.4c0.84,0,1.57,0.62,1.57,1.92
		c0,0.53-0.15,1.1-0.35,1.4L49.39,696.78z"/>
	<path class="st3" d="M45.38,691.64v1.66h-0.6v-4.05h0.6v1.67h4.87v0.71H45.38z"/>
	<path class="st3" d="M50.25,687.2h-2.32l-3.15,1.73v-0.8l1.51-0.77c0.41-0.21,0.75-0.37,1.13-0.54v-0.02
		c-0.36-0.15-0.71-0.34-1.13-0.55l-1.51-0.79v-0.8l3.14,1.83h2.33V687.2z"/>
	<path class="st3" d="M44.78,684.09v-0.71h4.88v-2.34h0.59v3.04H44.78z"/>
	<path class="st3" d="M47.69,677.42v2.13h1.97v-2.37h0.59v3.08h-5.47v-2.96h0.59v2.25h1.73v-2.13H47.69z"/>
</g>
<g>
	<path class="st3" d="M930.98,473.53c0.32,0.19,0.78,0.36,1.27,0.36c0.72,0,1.14-0.38,1.14-0.93c0-0.51-0.29-0.8-1.03-1.09
		c-0.89-0.32-1.44-0.78-1.44-1.55c0-0.85,0.71-1.49,1.77-1.49c0.56,0,0.97,0.13,1.21,0.27l-0.19,0.58c-0.18-0.1-0.54-0.26-1.04-0.26
		c-0.75,0-1.03,0.45-1.03,0.82c0,0.51,0.33,0.76,1.09,1.06c0.92,0.36,1.4,0.8,1.4,1.61c0,0.84-0.62,1.57-1.92,1.57
		c-0.53,0-1.1-0.15-1.4-0.35L930.98,473.53z"/>
	<path class="st3" d="M936.12,469.52h-1.66v-0.6h4.05v0.6h-1.67v4.87h-0.71V469.52z"/>
	<path class="st3" d="M940.56,474.39v-2.32l-1.73-3.15h0.8l0.77,1.51c0.21,0.41,0.37,0.75,0.54,1.13h0.02
		c0.15-0.36,0.34-0.71,0.55-1.13l0.79-1.51h0.8l-1.83,3.14v2.33H940.56z"/>
	<path class="st3" d="M943.67,468.92h0.71v4.88h2.34v0.59h-3.04V468.92z"/>
	<path class="st3" d="M950.34,471.83h-2.13v1.97h2.37v0.59h-3.08v-5.47h2.95v0.59h-2.25v1.73h2.13V471.83z"/>
</g>
<g>
	<path class="st3" d="M828.59,473.53c0.32,0.19,0.78,0.36,1.27,0.36c0.72,0,1.14-0.38,1.14-0.93c0-0.51-0.29-0.8-1.03-1.09
		c-0.89-0.32-1.44-0.78-1.44-1.55c0-0.85,0.71-1.49,1.77-1.49c0.56,0,0.97,0.13,1.21,0.27l-0.19,0.58c-0.18-0.1-0.54-0.26-1.04-0.26
		c-0.75,0-1.03,0.45-1.03,0.82c0,0.51,0.33,0.76,1.09,1.06c0.92,0.36,1.4,0.8,1.4,1.61c0,0.84-0.62,1.57-1.92,1.57
		c-0.53,0-1.1-0.15-1.4-0.35L828.59,473.53z"/>
	<path class="st3" d="M833.73,469.52h-1.66v-0.6h4.05v0.6h-1.67v4.87h-0.71V469.52z"/>
	<path class="st3" d="M838.17,474.39v-2.32l-1.73-3.15h0.8l0.77,1.51c0.21,0.41,0.37,0.75,0.54,1.13h0.02
		c0.15-0.36,0.34-0.71,0.55-1.13l0.79-1.51h0.8l-1.83,3.14v2.33H838.17z"/>
	<path class="st3" d="M841.29,468.92h0.71v4.88h2.34v0.59h-3.04V468.92z"/>
	<path class="st3" d="M847.95,471.83h-2.13v1.97h2.37v0.59h-3.08v-5.47h2.95v0.59h-2.25v1.73h2.13V471.83z"/>
</g>
<g>
	<path class="st3" d="M727.56,473.53c0.32,0.19,0.78,0.36,1.27,0.36c0.72,0,1.14-0.38,1.14-0.93c0-0.51-0.29-0.8-1.03-1.09
		c-0.89-0.32-1.44-0.78-1.44-1.55c0-0.85,0.71-1.49,1.77-1.49c0.56,0,0.97,0.13,1.21,0.27l-0.19,0.58c-0.18-0.1-0.54-0.26-1.04-0.26
		c-0.75,0-1.03,0.45-1.03,0.82c0,0.51,0.33,0.76,1.09,1.06c0.92,0.36,1.4,0.8,1.4,1.61c0,0.84-0.62,1.57-1.92,1.57
		c-0.53,0-1.1-0.15-1.4-0.35L727.56,473.53z"/>
	<path class="st3" d="M732.7,469.52h-1.66v-0.6h4.05v0.6h-1.67v4.87h-0.71V469.52z"/>
	<path class="st3" d="M737.14,474.39v-2.32l-1.73-3.15h0.8l0.77,1.51c0.21,0.41,0.37,0.75,0.54,1.13h0.02
		c0.15-0.36,0.34-0.71,0.55-1.13l0.79-1.51h0.8l-1.83,3.14v2.33H737.14z"/>
	<path class="st3" d="M740.25,468.92h0.71v4.88h2.34v0.59h-3.04V468.92z"/>
	<path class="st3" d="M746.92,471.83h-2.13v1.97h2.37v0.59h-3.08v-5.47h2.95v0.59h-2.25v1.73h2.13V471.83z"/>
</g>
<g>
	<path d="M345.91,166.78h-6.38v5.92h7.11v1.78h-9.23v-16.41h8.86v1.78h-6.75v5.19h6.38V166.78z"/>
	<path d="M354.28,167.1v1.58h-6.02v-1.58H354.28z"/>
	<path d="M368.68,173.94c-0.78,0.39-2.34,0.78-4.33,0.78c-4.63,0-8.11-2.92-8.11-8.3c0-5.14,3.48-8.62,8.57-8.62
		c2.05,0,3.34,0.44,3.9,0.73l-0.51,1.73c-0.8-0.39-1.95-0.68-3.31-0.68c-3.85,0-6.4,2.46-6.4,6.77c0,4.02,2.31,6.6,6.31,6.6
		c1.29,0,2.61-0.27,3.46-0.68L368.68,173.94z"/>
	<path d="M384.85,166.1c0,5.65-3.43,8.65-7.62,8.65c-4.33,0-7.38-3.36-7.38-8.33c0-5.21,3.24-8.62,7.62-8.62
		C381.95,157.8,384.85,161.23,384.85,166.1z M372.11,166.37c0,3.51,1.9,6.65,5.24,6.65c3.36,0,5.26-3.09,5.26-6.82
		c0-3.26-1.7-6.67-5.24-6.67C373.86,159.53,372.11,162.77,372.11,166.37z"/>
	<path d="M401.43,167.27c-0.12-2.29-0.27-5.04-0.24-7.09h-0.07c-0.56,1.92-1.24,3.97-2.07,6.23l-2.9,7.96h-1.61l-2.65-7.82
		c-0.78-2.31-1.44-4.43-1.9-6.38h-0.05c-0.05,2.05-0.17,4.8-0.32,7.26l-0.44,7.04h-2.02l1.14-16.41h2.7l2.8,7.94
		c0.68,2.02,1.24,3.82,1.66,5.53h0.07c0.41-1.66,1-3.46,1.73-5.53l2.92-7.94h2.7l1.02,16.41h-2.07L401.43,167.27z"/>
	<path d="M421.01,167.27c-0.12-2.29-0.27-5.04-0.24-7.09h-0.07c-0.56,1.92-1.24,3.97-2.07,6.23l-2.9,7.96h-1.61l-2.65-7.82
		c-0.78-2.31-1.44-4.43-1.9-6.38h-0.05c-0.05,2.05-0.17,4.8-0.32,7.26l-0.44,7.04h-2.02l1.14-16.41h2.7l2.8,7.94
		c0.68,2.02,1.24,3.82,1.66,5.53h0.07c0.41-1.66,1-3.46,1.73-5.53l2.92-7.94h2.7l1.02,16.41h-2.07L421.01,167.27z"/>
	<path d="M435.26,166.78h-6.38v5.92h7.11v1.78h-9.23v-16.41h8.86v1.78h-6.75v5.19h6.38V166.78z"/>
	<path d="M438.74,158.29c1.07-0.22,2.61-0.34,4.07-0.34c2.26,0,3.73,0.41,4.75,1.34c0.83,0.73,1.29,1.85,1.29,3.12
		c0,2.17-1.36,3.6-3.09,4.19v0.07c1.27,0.44,2.02,1.61,2.41,3.31c0.54,2.29,0.93,3.87,1.27,4.51h-2.19
		c-0.27-0.46-0.63-1.88-1.1-3.92c-0.49-2.26-1.36-3.12-3.29-3.19h-2v7.11h-2.12V158.29z M440.86,165.76h2.17
		c2.27,0,3.7-1.24,3.7-3.12c0-2.12-1.53-3.04-3.77-3.07c-1.02,0-1.75,0.1-2.09,0.2V165.76z"/>
	<path d="M463.39,173.94c-0.78,0.39-2.34,0.78-4.33,0.78c-4.63,0-8.11-2.92-8.11-8.3c0-5.14,3.48-8.62,8.57-8.62
		c2.05,0,3.34,0.44,3.9,0.73l-0.51,1.73c-0.8-0.39-1.95-0.68-3.31-0.68c-3.85,0-6.4,2.46-6.4,6.77c0,4.02,2.31,6.6,6.31,6.6
		c1.29,0,2.61-0.27,3.46-0.68L463.39,173.94z"/>
	<path d="M474.54,166.78h-6.38v5.92h7.11v1.78h-9.23v-16.41h8.86v1.78h-6.75v5.19h6.38V166.78z"/>
	<path d="M494.66,173.94c-0.78,0.39-2.34,0.78-4.33,0.78c-4.63,0-8.11-2.92-8.11-8.3c0-5.14,3.48-8.62,8.57-8.62
		c2.05,0,3.34,0.44,3.9,0.73l-0.51,1.73c-0.8-0.39-1.95-0.68-3.31-0.68c-3.85,0-6.4,2.46-6.4,6.77c0,4.02,2.31,6.6,6.31,6.6
		c1.29,0,2.61-0.27,3.46-0.68L494.66,173.94z"/>
	<path d="M510.83,166.1c0,5.65-3.43,8.65-7.62,8.65c-4.33,0-7.38-3.36-7.38-8.33c0-5.21,3.24-8.62,7.62-8.62
		C507.93,157.8,510.83,161.23,510.83,166.1z M498.09,166.37c0,3.51,1.9,6.65,5.24,6.65c3.36,0,5.26-3.09,5.26-6.82
		c0-3.26-1.7-6.67-5.24-6.67C499.84,159.53,498.09,162.77,498.09,166.37z"/>
	<path d="M513.58,174.48v-16.41h2.31l5.26,8.3c1.22,1.92,2.17,3.65,2.95,5.33l0.05-0.02c-0.19-2.19-0.24-4.19-0.24-6.75v-6.87h2
		v16.41h-2.14l-5.21-8.33c-1.14-1.83-2.24-3.7-3.07-5.48l-0.07,0.02c0.12,2.07,0.17,4.04,0.17,6.77v7.01H513.58z"/>
	<path d="M541.07,173.94c-0.78,0.39-2.34,0.78-4.33,0.78c-4.63,0-8.11-2.92-8.11-8.3c0-5.14,3.48-8.62,8.57-8.62
		c2.05,0,3.34,0.44,3.9,0.73l-0.51,1.73c-0.8-0.39-1.95-0.68-3.31-0.68c-3.85,0-6.4,2.46-6.4,6.77c0,4.02,2.31,6.6,6.31,6.6
		c1.29,0,2.61-0.27,3.46-0.68L541.07,173.94z"/>
	<path d="M552.22,166.78h-6.38v5.92h7.11v1.78h-9.23v-16.41h8.86v1.78h-6.75v5.19h6.38V166.78z"/>
	<path d="M555.71,158.26c1.02-0.17,2.36-0.32,4.07-0.32c2.09,0,3.63,0.49,4.6,1.36c0.9,0.78,1.44,1.97,1.44,3.43
		c0,1.49-0.44,2.65-1.27,3.51c-1.12,1.19-2.95,1.8-5.02,1.8c-0.63,0-1.22-0.02-1.7-0.15v6.58h-2.12V158.26z M557.83,166.18
		c0.46,0.12,1.05,0.17,1.75,0.17c2.56,0,4.12-1.24,4.12-3.51c0-2.17-1.53-3.21-3.87-3.21c-0.93,0-1.63,0.07-2,0.17V166.18z"/>
	<path d="M571.78,159.87h-4.99v-1.8h12.15v1.8h-5.02v14.61h-2.14V159.87z"/>
	<path d="M587.73,174.48l-4.16-16.41h2.24l1.95,8.3c0.49,2.05,0.93,4.09,1.22,5.67h0.05c0.27-1.63,0.78-3.58,1.34-5.7l2.19-8.28
		h2.22l2,8.33c0.46,1.95,0.9,3.9,1.14,5.63h0.05c0.34-1.8,0.8-3.63,1.32-5.67l2.17-8.28h2.17l-4.65,16.41h-2.22l-2.07-8.55
		c-0.51-2.09-0.85-3.7-1.07-5.36h-0.05c-0.29,1.63-0.66,3.24-1.27,5.36l-2.34,8.55H587.73z"/>
	<path d="M607.78,158.07v16.41h-2.12v-16.41H607.78z"/>
	<path d="M611.48,158.29c1.07-0.22,2.61-0.34,4.07-0.34c2.26,0,3.73,0.41,4.75,1.34c0.83,0.73,1.29,1.85,1.29,3.12
		c0,2.17-1.36,3.6-3.09,4.19v0.07c1.27,0.44,2.02,1.61,2.41,3.31c0.54,2.29,0.93,3.87,1.27,4.51h-2.19
		c-0.27-0.46-0.63-1.88-1.1-3.92c-0.49-2.26-1.36-3.12-3.29-3.19h-2v7.11h-2.12V158.29z M613.6,165.76h2.17
		c2.26,0,3.7-1.24,3.7-3.12c0-2.12-1.53-3.04-3.78-3.07c-1.02,0-1.75,0.1-2.09,0.2V165.76z"/>
	<path d="M633.08,166.78h-6.38v5.92h7.11v1.78h-9.23v-16.41h8.87v1.78h-6.75v5.19h6.38V166.78z"/>
	<path d="M636.56,158.07h8.84v1.78h-6.72v5.46h6.21v1.75h-6.21v7.43h-2.12V158.07z"/>
	<path d="M648.42,158.29c1.07-0.22,2.61-0.34,4.07-0.34c2.26,0,3.73,0.41,4.75,1.34c0.83,0.73,1.29,1.85,1.29,3.12
		c0,2.17-1.36,3.6-3.09,4.19v0.07c1.27,0.44,2.02,1.61,2.41,3.31c0.54,2.29,0.93,3.87,1.27,4.51h-2.19
		c-0.27-0.46-0.63-1.88-1.1-3.92c-0.49-2.26-1.36-3.12-3.29-3.19h-2v7.11h-2.12V158.29z M650.54,165.76h2.17
		c2.26,0,3.7-1.24,3.7-3.12c0-2.12-1.53-3.04-3.78-3.07c-1.02,0-1.75,0.1-2.09,0.2V165.76z"/>
	<path d="M664.3,169.32l-1.7,5.16h-2.19l5.58-16.41h2.56l5.6,16.41h-2.26l-1.75-5.16H664.3z M669.68,167.66l-1.61-4.72
		c-0.37-1.07-0.61-2.05-0.85-3h-0.05c-0.24,0.97-0.51,1.97-0.83,2.97l-1.61,4.75H669.68z"/>
	<path d="M690.28,167.27c-0.12-2.29-0.27-5.04-0.24-7.09h-0.07c-0.56,1.92-1.24,3.97-2.07,6.23l-2.9,7.96h-1.61l-2.65-7.82
		c-0.78-2.31-1.44-4.43-1.9-6.38h-0.05c-0.05,2.05-0.17,4.8-0.32,7.26l-0.44,7.04h-2.02l1.14-16.41h2.7l2.8,7.94
		c0.68,2.02,1.24,3.82,1.66,5.53h0.07c0.41-1.66,1-3.46,1.73-5.53l2.92-7.94h2.7l1.02,16.41h-2.07L690.28,167.27z"/>
	<path d="M704.53,166.78h-6.38v5.92h7.11v1.78h-9.23v-16.41h8.87v1.78h-6.75v5.19h6.38V166.78z"/>
</g>
<g>
	<path class="st4" d="M242.32,833.24H40.43c-18.28,0-33.23-14.95-33.23-33.23V309.87c0-18.28,14.95-33.23,33.23-33.23h201.88
		c18.28,0,33.23,14.95,33.23,33.23v490.15C275.55,818.29,260.59,833.24,242.32,833.24z"/>
	<path class="st4" d="M246.02,839.04H35.57c-18.28,0-33.23-14.95-33.23-33.23V303.67c0-18.28,14.95-33.23,33.23-33.23h210.45
		c18.28,0,33.23,14.95,33.23,33.23v502.14C279.25,824.09,264.3,839.04,246.02,839.04z"/>
	<circle class="st4" cx="140.62" cy="804.99" r="15.64"/>
	<circle class="st4" cx="140.62" cy="804.99" r="17.82"/>
	<circle class="st4" cx="103.15" cy="305.39" r="4.07"/>
	<circle class="st4" cx="141.32" cy="289.46" r="3.01"/>
	<path class="st4" d="M156.51,307.46h-31.44c-1.12,0-2.04-0.92-2.04-2.04v0c0-1.12,0.92-2.04,2.04-2.04h31.44
		c1.12,0,2.04,0.92,2.04,2.04v0C158.54,306.55,157.63,307.46,156.51,307.46z"/>
</g>
<rect x="18.08" y="333.09" class="st4" width="245.64" height="439.97"/>
<g>
	<g>
		<path class="st4" d="M515.95,674.42V472.53c0-18.28,14.95-33.23,33.23-33.23h490.15c18.28,0,33.23,14.95,33.23,33.23v201.88
			c0,18.28-14.95,33.23-33.23,33.23H549.18C530.91,707.65,515.95,692.69,515.95,674.42z"/>
		<path class="st4" d="M510.15,678.12V467.68c0-18.28,14.95-33.23,33.23-33.23h502.14c18.28,0,33.23,14.95,33.23,33.23v210.45
			c0,18.28-14.95,33.23-33.23,33.23H543.38C525.11,711.35,510.15,696.4,510.15,678.12z"/>
		<circle class="st4" cx="544.21" cy="572.72" r="15.64"/>
		<circle class="st4" cx="544.21" cy="572.72" r="17.82"/>
		<circle class="st4" cx="1043.8" cy="535.25" r="4.07"/>
		<circle class="st4" cx="1059.74" cy="573.42" r="3.01"/>
		<path class="st4" d="M1041.73,588.61v-31.44c0-1.12,0.92-2.04,2.04-2.04l0,0c1.12,0,2.04,0.92,2.04,2.04v31.44
			c0,1.12-0.92,2.04-2.04,2.04l0,0C1042.65,590.64,1041.73,589.73,1041.73,588.61z"/>
	</g>
	
		<rect x="673.81" y="352.51" transform="matrix(-1.836970e-16 1 -1 -1.836970e-16 1368.625 -223.629)" class="st4" width="244.64" height="439.97"/>
</g>
</svg>
