<?xml version="1.0" encoding="utf-8"?>
<!-- Generator: Adobe Illustrator 23.0.6, SVG Export Plug-In . SVG Version: 6.00 Build 0)  -->
<svg version="1.1" id="Layer_1" xmlns="http://www.w3.org/2000/svg" xmlns:xlink="http://www.w3.org/1999/xlink" x="0px" y="0px"
	 viewBox="0 0 553.4 216.8" style="enable-background:new 0 0 553.4 216.8;" xml:space="preserve">
<style type="text/css">
	.st0{fill:#2A2A2A;}
</style>
<g id="XMLID_6_">
	<path id="XMLID_4_" class="st0" d="M550.3,23.5c-18.7,27.1-37.3,54.3-55.9,81.5c1,1.6,2,3.2,3,4.7c0.8,4.5-5.2,8-9.3,6.1
		c-4.1-1.9-5.9-7.2-5.1-11.7c0.8-4.5,3.5-8.4,6.2-12.1c14.8-20.1,31.3-39.2,42.2-61.7C508.7,55.7,486.8,81.9,466,109
		c-2.6,3.3-5.2,6.7-8.8,8.8c-3.6,2-8.5,2.5-11.7-0.2c-3.2-2.6-3.2-8.7,0.5-10.5c-3.9,2.6-8.9,3.5-13.4,2.4
		c-8.7-2.1-15.8,6.4-22.8,12c-4.4,3.6-12.8,5-14.4-0.5c-1.1-4.1,2.9-9.2-0.1-12.1c-2.6,6.9-11.1,11.1-18.2,8.8
		c-1.8-0.6-3.5,1.2-4.5,2.7c-7.1,10.1-14.1,20.2-21.2,30.3c-2,2.8-4.7,6-8.1,5.5c-3.3-0.5-5.1-4.2-4.7-7.4c0.4-3.3,2.4-6,4.4-8.6
		c10.6-14,21.3-28.1,32-42.2c2.1-2.7,5.1-5.8,8.4-4.6c7.9,3,16.9-1.5,22.4-8c5.4-6.5,8.2-14.7,12-22.2c5.4-10.7,12.9-20.4,22.1-28.4
		c2.8-2.4,6.2-4.8,9.9-4.4c3.7,0.4,6.7,5.3,4.1,7.9c-19.2,20.1-34.9,43.5-46.3,68.8c3.7,1.1,7.5-1.6,9.8-4.6c2.3-3,4-6.8,7.1-9.2
		c3.1-2.4,8.2-2.7,10.2,0.6c1.7,3,6.3,1.4,9.2-0.4c17.5-11.5,32.9-26.4,45-43.6c4.1-5.8,10.7-12.7,17-9.5c3.7,1.9,7.7-2,10.2-5.3
		c6.3-8.3,14-15.5,22.5-21.5c4.5-3.2,11.9-5.3,14.4-0.4C554.4,16.8,552.3,20.5,550.3,23.5z"/>
	<path id="XMLID_7_" class="st0" d="M304,119.4c-3.4-2.5-4.6-7.4-2.8-11.2c1.9-3.8,6.5-5.9,10.6-4.7c16.9,4.9,35.9-4.5,52.3,1.7
		c-0.9,4-5.1,6.4-9.1,6.9c-4,0.5-8.1-0.5-12.2-0.7c-17.7-0.9-32.7,12.1-46.5,23.3c-33.9,27.4-72.9,47.8-111.5,68.1
		c-9.5,4.9-19.1,10.1-29.6,12.8c-5.9,1.6-12.8,2.1-17.3-2c-6-5.7-3.3-15.8,0.2-23.3c10.4-22.4,22.9-43.9,37.3-64
		c-18.5-6-37.6,6.4-52.2,19.3c-14.5,12.9-30,27.9-49.4,28.5c-3.5,0.1-7.3-0.3-10.3,1.6c-2.2,1.4-3.5,3.9-5.4,5.8
		c-1.9,1.8-5.1,3-7.1,1.3c-2.2-1.9-1.2-5.6,0.7-8c1.9-2.3,4.4-4.3,4.9-7.2c-9.7,3.7-20.1,5.3-30.4,4.7c-8.5-0.5-17.8-3-22.6-10.1
		c-5.2-7.3-4-17.5-0.9-25.9c4-11.2,10.8-21.1,18.1-30.6c29-37.8,66.7-68.9,109.2-90.3C142.3,9.1,155.2,3.7,168.7,1
		c9.5-1.9,21-1.7,26.8,6.1c4.8,6.5,3.4,15.6,1.1,23.4c-3.6,11.3-9.2,22.1-16.4,31.6c-1.3,1.7-2.7,3.5-2.9,5.6s1.4,4.5,3.5,4.3
		c4.1-0.4,7.3,5.2,4.9,8.5c-2.5,3.3-8.8,2-9.6-2.1c-0.5-2.6-4.4-0.7-5.9,1.6c-9,14.2-18,28.5-27,42.7c8.3-3.9,16.6-7.7,25-11.5
		c5.2-2.4,10.6-5,14-9.6c15.6-21.1,31.2-42.2,46.8-63.4c2-2.8,4.5-5.8,8-6.3c3.4-0.5,7.1,3.8,4.9,6.4
		c-13.3,15.4-25.1,31.9-35.5,49.4c21.9-24.6,44.1-49.4,70.8-68.7c5.8-4.2,12-8.2,19.1-9.5c7.1-1.2,15.1,0.8,19.1,6.8
		c2.7,4,3.1,9.1,3.2,13.9c0,23.5-9.3,46.7-25.5,63.7c-2.5,2.7-5.7,5.3-9.3,5.1c-3.7-0.2-6.6-5.3-3.8-7.6
		c18.5-15.7,29.6-39.8,29.4-64c0-3.8-0.8-8.4-4.4-9.7c-1.6-0.6-3.3-0.3-5,0c-13.2,2.8-24.2,11.7-34.3,20.6
		c-24.3,21.5-46.8,45.1-67.3,70.2c-2.2,2.8-4.6,6.1-3.9,9.5c0.7,3-2.6,5.3-5.2,6.9c-7.7,4.9-13,12.7-17.8,20.4
		c-10.6,17.1-19.5,35.3-26.7,54c-1.4,3.8,2.3,8,6.4,8.5c4,0.5,8-1.4,11.6-3.2C212.1,180.1,261.3,154.3,304,119.4 M20.3,163.3
		c24.4,5.9,52-4.9,65.9-25.8c0.4,5-2.3,10-6.5,12.6c18.8-1.2,36.2-11.7,49.4-25.3c13.2-13.6,22.8-30.1,32.3-46.5
		c7.9-13.7,15.9-27.4,23.8-41c3.2-5.6,6.6-11.6,6.6-18.1c0-6.5-4.6-13.5-11.1-13.6c-30-0.4-56.7,17.8-80.9,35.5
		c-13.6,9.8-27.1,19.7-39.5,31c-17.5,16-32.4,34.7-44.1,55.4c-3.5,6.1-6.7,12.7-6.8,19.8C9.2,154.2,13.5,161.6,20.3,163.3
		 M103.5,151.2c-0.1-0.7-0.9-1.3-1.7-1.2c-9.6,4.2-19.2,8.4-28.8,12.7c-1.2,0.6-2.6,1.3-2.7,2.6c-0.1,2.3,3.4,2.6,5.6,1.8
		C86,163.6,95.4,158.2,103.5,151.2z"/>
</g>
</svg>
