<?xml version="1.0" encoding="utf-8"?>
<!-- Generator: Adobe Illustrator 23.0.6, SVG Export Plug-In . SVG Version: 6.00 Build 0)  -->
<svg version="1.1" id="Layer_1" xmlns="http://www.w3.org/2000/svg" xmlns:xlink="http://www.w3.org/1999/xlink" x="0px" y="0px"
	 viewBox="0 0 325.4 91.6" style="enable-background:new 0 0 325.4 91.6;" xml:space="preserve">
<style type="text/css">
	.st0{fill:#FFFFFF;}
</style>
<g>
	<g>
		<polygon class="st0" points="0.1,0 0,0 0,91.6 0.1,91.6 45.8,45.8 		"/>
		<polygon class="st0" points="27.6,91.6 91.6,91.6 91.6,91.5 59.6,59.5 		"/>
		<polygon class="st0" points="91.6,64 91.6,27.6 73.3,45.8 		"/>
		<polygon class="st0" points="91.6,0.1 91.6,0 27.6,0 59.6,32 		"/>
	</g>
	<g>
		<path class="st0" d="M127,27h4.3v32.1H127v-1.9c-1.7,1.6-3.6,2.5-5.7,2.5c-2.5,0-4.6-0.9-6.3-2.8c-1.7-1.9-2.5-4.2-2.5-7.1
			c0-2.8,0.8-5.1,2.5-6.9c1.6-1.9,3.7-2.8,6.2-2.8c2.2,0,4.1,0.9,5.8,2.7V27z M116.9,49.8c0,1.8,0.5,3.2,1.4,4.3
			c1,1.1,2.2,1.7,3.7,1.7c1.6,0,2.9-0.5,3.8-1.6c1-1.1,1.5-2.6,1.5-4.3c0-1.7-0.5-3.2-1.5-4.3c-1-1.1-2.2-1.7-3.8-1.7
			c-1.5,0-2.7,0.6-3.7,1.7C117.4,46.8,116.9,48.2,116.9,49.8z"/>
		<path class="st0" d="M153.6,50.9h-13.3c0.1,1.5,0.6,2.7,1.5,3.6c0.9,0.9,2,1.3,3.4,1.3c1.1,0,1.9-0.3,2.6-0.8
			c0.7-0.5,1.5-1.4,2.3-2.8l3.6,2c-0.6,1-1.1,1.8-1.8,2.4c-0.6,0.7-1.3,1.2-2,1.7c-0.7,0.4-1.5,0.8-2.3,1c-0.8,0.2-1.7,0.3-2.7,0.3
			c-2.8,0-5-0.9-6.7-2.7c-1.7-1.8-2.5-4.2-2.5-7.1c0-2.9,0.8-5.3,2.4-7.1c1.6-1.8,3.8-2.7,6.5-2.7c2.7,0,4.9,0.9,6.5,2.6
			c1.6,1.7,2.4,4.1,2.4,7.2L153.6,50.9z M149.2,47.4c-0.6-2.3-2-3.4-4.3-3.4c-0.5,0-1,0.1-1.5,0.2c-0.5,0.2-0.9,0.4-1.2,0.7
			s-0.7,0.7-1,1.1c-0.3,0.4-0.5,0.9-0.6,1.4H149.2z"/>
		<path class="st0" d="M158.3,40.6h4.3v1.7c0.8-0.8,1.5-1.4,2.1-1.7c0.6-0.3,1.4-0.5,2.2-0.5c1.1,0,2.3,0.4,3.5,1.1l-2,3.9
			c-0.8-0.6-1.6-0.9-2.4-0.9c-2.3,0-3.5,1.8-3.5,5.3v9.6h-4.3V40.6z"/>
		<path class="st0" d="M173.4,40.6h4.3v1.7c0.8-0.8,1.5-1.4,2.1-1.7c0.6-0.3,1.4-0.5,2.2-0.5c1.1,0,2.3,0.4,3.5,1.1l-2,3.9
			c-0.8-0.6-1.6-0.9-2.4-0.9c-2.3,0-3.5,1.8-3.5,5.3v9.6h-4.3V40.6z"/>
		<path class="st0" d="M187.9,32.9c0-0.7,0.3-1.4,0.8-1.9s1.2-0.8,2-0.8c0.8,0,1.4,0.3,2,0.8c0.5,0.5,0.8,1.2,0.8,2s-0.3,1.4-0.8,2
			c-0.5,0.5-1.2,0.8-2,0.8c-0.8,0-1.4-0.3-2-0.8C188.2,34.4,187.9,33.7,187.9,32.9z M192.9,40.6v18.5h-4.3V40.6H192.9z"/>
		<path class="st0" d="M202.6,27v19.6l6-6h5.7l-8,7.8l8.6,10.7h-5.6l-6.1-7.8l-0.7,0.7v7.1h-4.3V27H202.6z"/>
		<path class="st0" d="M223.4,49.1l-6.7-8.5h5.1L226,46l4.2-5.4h5.2l-6.8,8.5l7.9,10h-5.1l-5.4-6.9l-5.6,6.9h-5.2L223.4,49.1z"/>
		<path class="st0" d="M252.4,40.6h4.3v18.5h-4.3v-1.9c-1.8,1.6-3.7,2.5-5.7,2.5c-2.6,0-4.7-0.9-6.4-2.8c-1.7-1.9-2.5-4.2-2.5-7.1
			c0-2.8,0.8-5.1,2.5-6.9c1.7-1.9,3.7-2.8,6.2-2.8c2.2,0,4.1,0.9,5.8,2.7V40.6z M242.3,49.8c0,1.8,0.5,3.2,1.4,4.3
			c1,1.1,2.2,1.7,3.7,1.7c1.6,0,2.9-0.5,3.8-1.6c1-1.1,1.5-2.6,1.5-4.3c0-1.7-0.5-3.2-1.5-4.3c-1-1.1-2.2-1.7-3.8-1.7
			c-1.5,0-2.7,0.6-3.7,1.7C242.7,46.8,242.3,48.2,242.3,49.8z"/>
		<path class="st0" d="M264.7,40.6l4.8,10.4l4.8-10.4h4.8l-9.6,19.8L260,40.6H264.7z"/>
		<path class="st0" d="M281.4,32.9c0-0.7,0.3-1.4,0.8-1.9s1.2-0.8,2-0.8c0.8,0,1.4,0.3,2,0.8c0.5,0.5,0.8,1.2,0.8,2s-0.3,1.4-0.8,2
			c-0.5,0.5-1.2,0.8-2,0.8c-0.8,0-1.4-0.3-2-0.8C281.6,34.4,281.4,33.7,281.4,32.9z M286.3,40.6v18.5H282V40.6H286.3z"/>
		<path class="st0" d="M308.6,50.9h-13.3c0.1,1.5,0.6,2.7,1.5,3.6c0.9,0.9,2,1.3,3.4,1.3c1.1,0,1.9-0.3,2.6-0.8
			c0.7-0.5,1.5-1.4,2.3-2.8l3.6,2c-0.6,1-1.1,1.8-1.8,2.4c-0.6,0.7-1.3,1.2-2,1.7c-0.7,0.4-1.5,0.8-2.3,1c-0.8,0.2-1.7,0.3-2.7,0.3
			c-2.8,0-5-0.9-6.7-2.7c-1.7-1.8-2.5-4.2-2.5-7.1c0-2.9,0.8-5.3,2.4-7.1c1.6-1.8,3.8-2.7,6.5-2.7c2.7,0,4.9,0.9,6.5,2.6
			c1.6,1.7,2.4,4.1,2.4,7.2L308.6,50.9z M304.2,47.4c-0.6-2.3-2-3.4-4.3-3.4c-0.5,0-1,0.1-1.5,0.2c-0.5,0.2-0.9,0.4-1.2,0.7
			c-0.4,0.3-0.7,0.7-1,1.1c-0.3,0.4-0.5,0.9-0.6,1.4H304.2z"/>
		<path class="st0" d="M313.3,40.6h4.3v1.7c0.8-0.8,1.5-1.4,2.1-1.7c0.6-0.3,1.4-0.5,2.2-0.5c1.1,0,2.3,0.4,3.5,1.1l-2,3.9
			c-0.8-0.6-1.6-0.9-2.4-0.9c-2.3,0-3.5,1.8-3.5,5.3v9.6h-4.3V40.6z"/>
	</g>
</g>
</svg>
