<?xml version="1.0" encoding="utf-8"?>
<!-- Generator: Adobe Illustrator 23.0.6, SVG Export Plug-In . SVG Version: 6.00 Build 0)  -->
<svg version="1.1" id="Layer_1" xmlns="http://www.w3.org/2000/svg" xmlns:xlink="http://www.w3.org/1999/xlink" x="0px" y="0px"
	 viewBox="0 0 500 250" style="enable-background:new 0 0 500 250;" xml:space="preserve">
<style type="text/css">
	.st0{fill:none;stroke:#D2ECE5;stroke-width:0.5;stroke-miterlimit:10;}
	.st1{fill:none;stroke:#D2ECE5;stroke-miterlimit:10;}
</style>
<g>
	<path class="st0" d="M135.7,163.8c1,0,1.8-0.6,1.8-1.3c0-0.7-0.8-1.2-1.7-1.2s-1.8,0.6-1.8,1.2C134,163.2,134.7,163.8,135.7,163.8z
		"/>
	<path class="st0" d="M341.6,165.6c2.4,0,3.6-1.4,2.7-3c-0.9-1.7-3.4-3-5.8-3s-3.6,1.3-2.7,3C336.6,164.2,339.2,165.6,341.6,165.6z"
		/>
	<path class="st1" d="M378.8,220.4l-51.3-97c-1.7-3.3-7.3-5.9-12.5-5.9h-71.4l-5,5H313l45.2,92.9H140.9l1.3-92.9H229l5-5h-96.6
		c-5.2,0-9.5,2.6-9.7,5.9l-5.5,97c-0.3,5.6,5,10.2,11.9,10.2h237.4C378.5,230.6,381.7,226,378.8,220.4z"/>
	<g>
		<path class="st1" d="M373,214.8l-47.8-91.2c-1.7-3.3-7.3-5.9-12.4-5.9h-69.6L243,118l-5,5l-24.6,24.6l0.1,0.1l-8.8,6.3l-4.5,3.2
			c-1,0.7-1.9-0.2-1.2-1.2l3.2-4.5l6.3-8.8l0.1,0.1l19.8-19.8l5-5l0.2-0.2h-95c-5.2,0-9.5,2.6-9.6,5.9l-4.6,91.2
			c-0.3,5.4,5,9.9,11.8,9.9h229.7C372.6,224.7,375.8,220.2,373,214.8z"/>
		<path class="st1" d="M228.4,123l-19.8,19.8l-0.1-0.1l-6.3,8.8l-3.2,4.5c-0.7,1,0.2,1.9,1.2,1.2l4.5-3.2l8.8-6.3l-0.1-0.1
			l24.6-24.6l5-5l0.2-0.2l70.5-70.5c0.5-0.5,0.6-1.1,0.2-1.5l-3.5-3.5c-0.3-0.3-1-0.2-1.5,0.2l-75.3,75.3l-0.2,0.2L228.4,123z"/>
	</g>
</g>
</svg>
