<?xml version="1.0" encoding="utf-8"?>
<!-- Generator: Adobe Illustrator 23.0.6, SVG Export Plug-In . SVG Version: 6.00 Build 0)  -->
<svg version="1.1" id="Layer_1" xmlns="http://www.w3.org/2000/svg" xmlns:xlink="http://www.w3.org/1999/xlink" x="0px" y="0px"
	 viewBox="0 0 360.8 221.3" style="enable-background:new 0 0 360.8 221.3;" xml:space="preserve">
<style type="text/css">
	.st0{fill:none;stroke:#D2ECE5;stroke-miterlimit:10;}
	.st1{fill:none;stroke:#D2ECE5;stroke-width:0.5;stroke-miterlimit:10;}
</style>
<title>icon1</title>
<path class="st0" d="M79.2,174.9"/>
<path class="st0" d="M74.9,153.7l-7.1,1.4c-0.4,0.1-0.9,0.1-1.3,0l-1.5-0.7c-0.2-0.1,0-0.3,0.5-0.4l7-1.3c0.4-0.1,0.9-0.1,1.3,0
	l1.6,0.6C75.6,153.5,75.4,153.6,74.9,153.7z"/>
<path class="st0" d="M80.5,156l-7.2,1.5c-0.5,0.1-0.9,0.1-1.4,0l-3.8-1.7c-0.2-0.1,0-0.3,0.5-0.4l7.1-1.4c0.4-0.1,0.9-0.1,1.3,0
	l3.9,1.6C81.1,155.7,80.9,155.9,80.5,156z"/>
<path class="st0" d="M92.3,156.9l-13.7,2.9c-0.5,0.1-0.9,0.1-1.4,0l-4-1.7c-0.3-0.1-0.1-0.3,0.4-0.4l13.5-2.7c0.4-0.1,0.9-0.1,1.3,0
	l4.1,1.6C92.9,156.6,92.8,156.8,92.3,156.9z"/>
<path class="st0" d="M100.6,158.8l-16.1,3.5c-0.5,0.1-1,0.1-1.4,0l-4.2-1.8c-0.3-0.1-0.1-0.3,0.4-0.4l15.9-3.4
	c0.4-0.1,0.9-0.1,1.4,0l4.4,1.7C101.2,158.5,101.1,158.7,100.6,158.8z"/>
<path class="st0" d="M110.7,160.3l-20.1,4.6c-0.5,0.1-1,0.1-1.5,0l-4.4-1.9c-0.3-0.1-0.1-0.3,0.4-0.4l20-4.5c0.5-0.1,0.9-0.1,1.4,0
	l4.6,1.7C111.3,160,111.2,160.2,110.7,160.3z"/>
<path class="st0" d="M102.4,154.8l-6.7,1.4c-0.4,0.1-0.9,0.1-1.4,0l-4.1-1.6c-0.3-0.1-0.1-0.3,0.4-0.4l6.7-1.3
	c0.4-0.1,0.9-0.1,1.3,0l4.2,1.5C103,154.5,102.8,154.7,102.4,154.8z"/>
<path class="st0" d="M110.4,156.6l-6.7,1.5c-0.5,0.1-0.9,0.1-1.4,0l-4.4-1.7c-0.3-0.1-0.1-0.3,0.3-0.4l6.7-1.4
	c0.4-0.1,0.9-0.1,1.3,0l4.4,1.6C110.9,156.4,110.8,156.5,110.4,156.6z"/>
<path class="st0" d="M120.4,158.1l-6.6,1.5c-0.5,0.1-0.9,0.1-1.4,0l-4.6-1.7c-0.3-0.1-0.2-0.3,0.3-0.4l6.6-1.5
	c0.4-0.1,0.9-0.1,1.3,0l4.6,1.6C121,157.8,120.9,158,120.4,158.1z"/>
<path class="st0" d="M104.7,166l-7.6,1.8c-0.5,0.1-1,0.1-1.5,0l-4.7-2c-0.3-0.1-0.1-0.3,0.4-0.5l7.5-1.7c0.5-0.1,1-0.1,1.5,0
	l4.8,1.9C105.3,165.7,105.2,165.9,104.7,166z"/>
<path class="st0" d="M115.1,163.5l-7.1,1.7c-0.5,0.1-1,0.1-1.5,0l-4.8-1.9c-0.3-0.1-0.2-0.3,0.3-0.4l7.1-1.6c0.5-0.1,1-0.1,1.4,0
	l4.8,1.8C115.8,163.2,115.6,163.4,115.1,163.5z"/>
<path class="st0" d="M125,161.1l-6.8,1.6c-0.5,0.1-1,0.1-1.4,0l-4.8-1.9c-0.3-0.1-0.2-0.3,0.3-0.4l6.7-1.5c0.5-0.1,0.9-0.1,1.4,0
	l4.9,1.8C125.6,160.8,125.5,161,125,161.1z"/>
<path class="st0" d="M134.5,158.9l-6.4,1.5c-0.5,0.1-0.9,0.1-1.4,0l-4.9-1.7c-0.3-0.1-0.2-0.3,0.2-0.4l6.4-1.5
	c0.4-0.1,0.9-0.1,1.4,0l4.9,1.7C135,158.6,134.9,158.7,134.5,158.9z"/>
<path class="st0" d="M176.8,148.7l-39.6,9.5c-0.4,0.1-0.9,0.1-1.4,0l-4.9-1.7c-0.3-0.1-0.2-0.3,0.2-0.4l39.4-9.1
	c0.4-0.1,0.8-0.1,1.2,0l5,1.3C177.2,148.5,177.2,148.6,176.8,148.7z"/>
<path class="st0" d="M183.7,147.1l-4.8,1.1c-0.4,0.1-0.8,0.1-1.2,0l-5-1.3c-0.3-0.1-0.3-0.2,0-0.3l4.8-1.1c0.4-0.1,0.8-0.1,1.2,0
	l5,1.3C184,146.8,184,147,183.7,147.1z"/>
<path class="st0" d="M190.3,145.5l-4.6,1.1c-0.4,0.1-0.8,0.1-1.2,0l-5-1.3c-0.3-0.1-0.3-0.2,0-0.3l4.6-1.1c0.4-0.1,0.8-0.1,1.2,0
	l5,1.2C190.6,145.3,190.6,145.4,190.3,145.5z"/>
<path class="st0" d="M198,143.6l-4.4,1.1c-0.4,0.1-0.8,0.1-1.2,0l-1.9-0.5c-0.3-0.1-0.3-0.2,0-0.3l4.4-1c0.4-0.1,0.8-0.1,1.1,0
	l1.9,0.5C198.2,143.4,198.3,143.6,198,143.6z"/>
<path class="st0" d="M204,142.2l-4.2,1c-0.4,0.1-0.8,0.1-1.1,0l-1.9-0.4c-0.3-0.1-0.4-0.2-0.1-0.3l4.2-1c0.4-0.1,0.7-0.1,1.1,0
	l1.9,0.4C204.3,142,204.3,142.1,204,142.2z"/>
<path class="st0" d="M200.8,141.4l-4.2,1c-0.4,0.1-0.8,0.1-1.1,0l-1.9-0.4c-0.3-0.1-0.3-0.2-0.1-0.3l4.2-1c0.4-0.1,0.7-0.1,1.1,0
	l1.9,0.4C201,141.3,201.1,141.4,200.8,141.4z"/>
<path class="st0" d="M210,140.7l-4,1c-0.4,0.1-0.7,0.1-1.1,0l-1.9-0.4c-0.3-0.1-0.4-0.2-0.1-0.3l4-0.9c0.4-0.1,0.7-0.1,1.1,0
	l1.9,0.4C210.3,140.6,210.3,140.7,210,140.7z"/>
<path class="st0" d="M129.5,156l-6.3,1.5c-0.4,0.1-0.9,0.1-1.4,0l-4.7-1.6c-0.3-0.1-0.2-0.3,0.2-0.4l6.3-1.4c0.4-0.1,0.9-0.1,1.3,0
	l4.7,1.6C130,155.7,129.9,155.9,129.5,156z"/>
<path class="st0" d="M138.1,154l-6,1.4c-0.4,0.1-0.9,0.1-1.3,0l-4.7-1.6c-0.3-0.1-0.2-0.3,0.2-0.3l6-1.3c0.4-0.1,0.9-0.1,1.3,0
	l4.7,1.5C138.6,153.8,138.5,153.9,138.1,154z"/>
<path class="st0" d="M146.4,152.1l-5.8,1.3c-0.4,0.1-0.9,0.1-1.3,0l-4.7-1.5c-0.3-0.1-0.2-0.2,0.2-0.3l5.7-1.3
	c0.4-0.1,0.8-0.1,1.3,0l4.8,1.4C146.8,151.9,146.7,152.1,146.4,152.1z"/>
<path class="st0" d="M154.2,150.3l-5.5,1.3c-0.4,0.1-0.9,0.1-1.3,0l-4.8-1.4c-0.3-0.1-0.2-0.2,0.1-0.3l5.5-1.2
	c0.4-0.1,0.8-0.1,1.2,0l4.8,1.4C154.6,150.1,154.6,150.2,154.2,150.3z"/>
<path class="st0" d="M161.8,148.6l-5.3,1.2c-0.4,0.1-0.8,0.1-1.2,0l-4.7-1.4c-0.3-0.1-0.3-0.2,0.1-0.3l5.3-1.1
	c0.4-0.1,0.8-0.1,1.2,0l4.8,1.3C162.2,148.4,162.1,148.5,161.8,148.6z"/>
<path class="st0" d="M169,147l-5,1.2c-0.4,0.1-0.8,0.1-1.2,0l-4.8-1.3c-0.3-0.1-0.3-0.2,0.1-0.3l5-1.1c0.4-0.1,0.8-0.1,1.2,0
	l4.8,1.3C169.3,146.8,169.3,146.9,169,147z"/>
<path class="st0" d="M175.9,145.4l-4.8,1.1c-0.4,0.1-0.8,0.1-1.2,0l-4.8-1.3c-0.3-0.1-0.3-0.2,0-0.3l4.8-1.1c0.4-0.1,0.8-0.1,1.1,0
	l4.8,1.2C176.2,145.2,176.2,145.3,175.9,145.4z"/>
<path class="st0" d="M182.5,143.9l-4.6,1.1c-0.4,0.1-0.8,0.1-1.2,0l-4.8-1.2c-0.3-0.1-0.3-0.2,0-0.3l4.6-1c0.4-0.1,0.8-0.1,1.1,0
	l4.8,1.2C182.8,143.7,182.8,143.8,182.5,143.9z"/>
<path class="st0" d="M188.9,142.4l-4.5,1c-0.4,0.1-0.8,0.1-1.1,0l-4.8-1.2c-0.3-0.1-0.3-0.2,0-0.3l4.5-1c0.4-0.1,0.7-0.1,1.1,0
	l4.8,1.1C189.2,142.3,189.2,142.3,188.9,142.4z"/>
<path class="st0" d="M203.2,139.1l-12.4,2.8c-0.4,0.1-0.7,0.1-1.1,0l-4.8-1.1c-0.3-0.1-0.3-0.2,0-0.3l12.4-2.7
	c0.3-0.1,0.7-0.1,1.1,0l4.8,1C203.4,139,203.4,139.1,203.2,139.1z"/>
<path class="st0" d="M119.6,154.6l-6.4,1.4c-0.4,0.1-0.9,0.1-1.4,0l-4.4-1.6c-0.3-0.1-0.2-0.3,0.3-0.4l6.4-1.3
	c0.4-0.1,0.9-0.1,1.3,0l4.5,1.5C120.1,154.3,120,154.5,119.6,154.6z"/>
<path class="st0" d="M128.4,152.7l-6.1,1.3c-0.4,0.1-0.9,0.1-1.3,0l-4.5-1.5c-0.3-0.1-0.2-0.3,0.2-0.3l6-1.3c0.4-0.1,0.9-0.1,1.3,0
	l4.5,1.5C128.9,152.4,128.8,152.6,128.4,152.7z"/>
<path class="st0" d="M136.8,150.8l-5.8,1.3c-0.4,0.1-0.9,0.1-1.3,0l-4.5-1.5c-0.3-0.1-0.2-0.2,0.2-0.3l5.8-1.2
	c0.4-0.1,0.8-0.1,1.2,0l4.5,1.4C137.3,150.6,137.2,150.8,136.8,150.8z"/>
<path class="st0" d="M144.9,149.1l-5.6,1.2c-0.4,0.1-0.8,0.1-1.3,0l-4.5-1.4c-0.3-0.1-0.2-0.2,0.2-0.3l5.6-1.2
	c0.4-0.1,0.8-0.1,1.2,0l4.5,1.4C145.3,148.9,145.2,149,144.9,149.1z"/>
<path class="st0" d="M152.6,147.4l-5.3,1.2c-0.4,0.1-0.8,0.1-1.2,0l-4.5-1.3c-0.3-0.1-0.2-0.2,0.1-0.3l5.3-1.1
	c0.4-0.1,0.8-0.1,1.2,0l4.6,1.3C153,147.2,152.9,147.3,152.6,147.4z"/>
<path class="st0" d="M160,145.8l-5.1,1.1c-0.4,0.1-0.8,0.1-1.2,0l-4.6-1.3c-0.3-0.1-0.2-0.2,0.1-0.3l5.1-1.1c0.4-0.1,0.8-0.1,1.2,0
	l4.6,1.2C160.3,145.6,160.3,145.7,160,145.8z"/>
<path class="st0" d="M167,144.2l-4.9,1.1c-0.4,0.1-0.8,0.1-1.2,0l-4.6-1.2c-0.3-0.1-0.3-0.2,0.1-0.3l4.9-1c0.4-0.1,0.8-0.1,1.1,0
	l4.6,1.2C167.4,144,167.3,144.2,167,144.2z"/>
<path class="st0" d="M173.8,142.7l-4.7,1c-0.4,0.1-0.8,0.1-1.2,0l-4.6-1.2c-0.3-0.1-0.3-0.2,0-0.3l4.7-1c0.4-0.1,0.7-0.1,1.1,0
	l4.6,1.2C174.1,142.6,174.1,142.7,173.8,142.7z"/>
<path class="st0" d="M180.3,141.3l-4.5,1c-0.4,0.1-0.8,0.1-1.1,0l-4.6-1.1c-0.3-0.1-0.3-0.2,0-0.2l4.5-1c0.4-0.1,0.7-0.1,1.1,0
	l4.6,1.1C180.6,141.1,180.6,141.2,180.3,141.3z"/>
<path class="st0" d="M186.6,140l-4.3,0.9c-0.4,0.1-0.7,0.1-1.1,0l-4.6-1.1c-0.3-0.1-0.3-0.2,0-0.2l4.3-0.9c0.4-0.1,0.7-0.1,1.1,0
	l4.6,1.1C186.8,139.8,186.9,139.9,186.6,140z"/>
<path class="st0" d="M196.6,137.7l-8.2,1.8c-0.4,0.1-0.7,0.1-1.1,0l-4.6-1c-0.3-0.1-0.3-0.2,0-0.2l8.2-1.7c0.3-0.1,0.7-0.1,1,0
	l4.6,1C196.9,137.6,196.9,137.7,196.6,137.7z"/>
<path class="st0" d="M111.6,152.8l-6.4,1.4c-0.4,0.1-0.9,0.1-1.3,0l-4.2-1.5c-0.3-0.1-0.1-0.3,0.3-0.3l6.4-1.3
	c0.4-0.1,0.9-0.1,1.3,0l4.2,1.5C112.1,152.6,112,152.8,111.6,152.8z"/>
<path class="st0" d="M120.3,151l-6.1,1.3c-0.4,0.1-0.9,0.1-1.3,0l-4.3-1.5c-0.3-0.1-0.2-0.2,0.3-0.3l6.1-1.2c0.4-0.1,0.8-0.1,1.2,0
	l4.3,1.4C120.8,150.8,120.7,150.9,120.3,151z"/>
<path class="st0" d="M128.7,149.3l-5.9,1.2c-0.4,0.1-0.8,0.1-1.3,0l-4.3-1.4c-0.3-0.1-0.2-0.2,0.2-0.3l5.8-1.2
	c0.4-0.1,0.8-0.1,1.2,0l4.3,1.4C129.2,149.1,129.1,149.2,128.7,149.3z"/>
<path class="st0" d="M136.7,147.5l-5.6,1.2c-0.4,0.1-0.8,0.1-1.2,0l-4.3-1.4c-0.3-0.1-0.2-0.2,0.2-0.3l5.6-1.1
	c0.4-0.1,0.8-0.1,1.2,0l4.4,1.3C137.1,147.4,137.1,147.5,136.7,147.5z"/>
<path class="st0" d="M144.4,146l-5.4,1.1c-0.4,0.1-0.8,0.1-1.2,0l-4.4-1.3c-0.3-0.1-0.2-0.2,0.2-0.3l5.3-1.1c0.4-0.1,0.8-0.1,1.2,0
	l4.4,1.2C144.8,145.8,144.7,145.9,144.4,146z"/>
<path class="st0" d="M151.7,144.4l-5.2,1.1c-0.4,0.1-0.8,0.1-1.2,0l-4.4-1.2c-0.3-0.1-0.2-0.2,0.1-0.3l5.1-1c0.4-0.1,0.8-0.1,1.1,0
	l4.4,1.2C152.1,144.2,152.1,144.3,151.7,144.4z"/>
<path class="st0" d="M158.8,142.9l-4.9,1c-0.4,0.1-0.8,0.1-1.2,0l-4.4-1.2c-0.3-0.1-0.2-0.2,0.1-0.3l4.9-1c0.4-0.1,0.8-0.1,1.1,0
	l4.4,1.2C159.1,142.7,159.1,142.9,158.8,142.9z"/>
<path class="st0" d="M165.6,141.5l-4.7,1c-0.4,0.1-0.8,0.1-1.1,0l-4.4-1.2c-0.3-0.1-0.3-0.2,0.1-0.3l4.7-1c0.4-0.1,0.7-0.1,1.1,0
	l4.4,1.1C165.9,141.3,165.9,141.4,165.6,141.5z"/>
<path class="st0" d="M172.1,140.1l-4.5,1c-0.4,0.1-0.7,0.1-1.1,0L162,140c-0.3-0.1-0.3-0.2,0.1-0.2l4.5-0.9c0.4-0.1,0.7-0.1,1.1,0
	l4.4,1.1C172.4,140,172.4,140.1,172.1,140.1z"/>
<path class="st0" d="M178.3,138.8l-4.4,0.9c-0.4,0.1-0.7,0.1-1.1,0l-4.4-1.1c-0.3-0.1-0.3-0.2,0-0.2l4.4-0.9c0.3-0.1,0.7-0.1,1.1,0
	l4.4,1C178.6,138.7,178.6,138.8,178.3,138.8z"/>
<path class="st0" d="M184.4,137.6l-4.2,0.9c-0.4,0.1-0.7,0.1-1.1,0l-4.4-1c-0.3-0.1-0.3-0.2,0-0.2l4.2-0.9c0.3-0.1,0.7-0.1,1,0
	l4.4,1C184.7,137.4,184.7,137.5,184.4,137.6z"/>
<path class="st0" d="M190.2,136.3l-4.1,0.9c-0.3,0.1-0.7,0.1-1.1,0l-4.4-1c-0.3-0.1-0.3-0.2,0-0.2l4.1-0.8c0.3-0.1,0.7-0.1,1,0
	l4.4,1C190.4,136.2,190.5,136.3,190.2,136.3z"/>
<path class="st0" d="M90.3,154l-6.9,1.4c-0.4,0.1-0.9,0.1-1.3,0l-3.9-1.6c-0.2-0.1-0.1-0.3,0.4-0.4l6.8-1.3c0.4-0.1,0.9-0.1,1.3,0
	l4,1.5C90.9,153.7,90.8,153.9,90.3,154z"/>
<path class="st0" d="M99.7,152.1l-6.6,1.3c-0.4,0.1-0.9,0.1-1.3,0l-4-1.5c-0.3-0.1-0.1-0.2,0.4-0.3l6.5-1.3c0.4-0.1,0.8-0.1,1.3,0
	l4,1.5C100.3,151.8,100.2,152,99.7,152.1z"/>
<path class="st0" d="M108.7,150.3l-6.3,1.3c-0.4,0.1-0.9,0.1-1.3,0l-4-1.4c-0.3-0.1-0.1-0.2,0.3-0.3l6.2-1.2c0.4-0.1,0.8-0.1,1.2,0
	l4.1,1.4C109.3,150,109.2,150.2,108.7,150.3z"/>
<path class="st0" d="M117.4,148.5l-6,1.2c-0.4,0.1-0.8,0.1-1.3,0l-4.1-1.4c-0.3-0.1-0.1-0.2,0.3-0.3l6-1.2c0.4-0.1,0.8-0.1,1.2,0
	l4.1,1.3C117.9,148.3,117.8,148.4,117.4,148.5z"/>
<path class="st0" d="M125.6,146.9l-5.7,1.2c-0.4,0.1-0.8,0.1-1.2,0l-4.1-1.3c-0.3-0.1-0.2-0.2,0.2-0.3l5.7-1.1
	c0.4-0.1,0.8-0.1,1.2,0l4.2,1.3C126.1,146.7,126,146.8,125.6,146.9z"/>
<path class="st0" d="M133.5,145.3l-5.5,1.1c-0.4,0.1-0.8,0.1-1.2,0l-4.2-1.3c-0.3-0.1-0.2-0.2,0.2-0.3l5.5-1.1
	c0.4-0.1,0.8-0.1,1.2,0l4.2,1.2C133.9,145.1,133.9,145.2,133.5,145.3z"/>
<path class="st0" d="M141,143.8l-5.3,1.1c-0.4,0.1-0.8,0.1-1.2,0l-4.2-1.2c-0.3-0.1-0.2-0.2,0.2-0.3l5.2-1c0.4-0.1,0.8-0.1,1.1,0
	l4.2,1.2C141.5,143.6,141.4,143.7,141,143.8z"/>
<path class="st0" d="M148.3,142.3l-5.1,1c-0.4,0.1-0.8,0.1-1.1,0l-4.2-1.2c-0.3-0.1-0.2-0.2,0.1-0.3l5-1c0.4-0.1,0.7-0.1,1.1,0
	l4.2,1.1C148.7,142.1,148.6,142.3,148.3,142.3z"/>
<path class="st0" d="M155.3,140.9l-4.9,1c-0.4,0.1-0.8,0.1-1.1,0l-4.2-1.1c-0.3-0.1-0.2-0.2,0.1-0.3l4.8-0.9c0.4-0.1,0.7-0.1,1.1,0
	l4.3,1.1C155.6,140.7,155.6,140.8,155.3,140.9z"/>
<path class="st0" d="M162,139.5l-4.7,0.9c-0.4,0.1-0.7,0.1-1.1,0l-4.3-1.1c-0.3-0.1-0.2-0.2,0.1-0.2l4.7-0.9c0.4-0.1,0.7-0.1,1.1,0
	l4.3,1.1C162.3,139.3,162.3,139.5,162,139.5z"/>
<path class="st0" d="M168.4,138.2l-4.5,0.9c-0.4,0.1-0.7,0.1-1.1,0l-4.3-1.1c-0.3-0.1-0.2-0.2,0.1-0.2l4.5-0.9
	c0.3-0.1,0.7-0.1,1.1,0l4.3,1C168.7,138.1,168.7,138.2,168.4,138.2z"/>
<path class="st0" d="M174.6,137l-4.3,0.9c-0.3,0.1-0.7,0.1-1.1,0l-4.3-1c-0.3-0.1-0.3-0.2,0-0.2l4.3-0.8c0.3-0.1,0.7-0.1,1,0l4.3,1
	C174.9,136.8,174.9,136.9,174.6,137z"/>
<path class="st0" d="M184.2,135l-7.8,1.6c-0.3,0.1-0.7,0.1-1,0l-4.3-1c-0.3-0.1-0.3-0.2,0-0.2l7.8-1.5c0.3-0.1,0.7-0.1,1,0l4.3,0.9
	C184.5,134.9,184.5,135,184.2,135z"/>
<path class="st0" d="M85.1,151.8l-6.7,1.3c-0.4,0.1-0.9,0.1-1.3,0l-1.6-0.6c-0.2-0.1-0.1-0.3,0.4-0.3l6.7-1.3c0.4-0.1,0.9-0.1,1.3,0
	l1.6,0.6C85.7,151.5,85.6,151.7,85.1,151.8z"/>
<path class="st0" d="M94.9,149.9l-6.4,1.2c-0.4,0.1-0.9,0.1-1.3,0l-1.6-0.6c-0.2-0.1-0.1-0.2,0.4-0.3l6.4-1.2c0.4-0.1,0.8-0.1,1.2,0
	l1.6,0.6C95.5,149.6,95.4,149.8,94.9,149.9z"/>
<path class="st0" d="M104.2,148.1l-6.1,1.2c-0.4,0.1-0.8,0.1-1.2,0l-1.6-0.6c-0.2-0.1-0.1-0.2,0.3-0.3l6.1-1.2
	c0.4-0.1,0.8-0.1,1.2,0l1.7,0.6C104.7,147.8,104.6,148,104.2,148.1z"/>
<path class="st0" d="M113.1,146.3l-5.8,1.1c-0.4,0.1-0.8,0.1-1.2,0l-1.7-0.6c-0.3-0.1-0.1-0.2,0.3-0.3l5.8-1.1
	c0.4-0.1,0.8-0.1,1.2,0l1.7,0.5C113.6,146.1,113.5,146.3,113.1,146.3z"/>
<path class="st0" d="M121.6,144.7l-5.6,1.1c-0.4,0.1-0.8,0.1-1.2,0l-1.7-0.5c-0.3-0.1-0.2-0.2,0.2-0.3l5.6-1.1
	c0.4-0.1,0.8-0.1,1.2,0l1.7,0.5C122.1,144.5,122,144.6,121.6,144.7z"/>
<path class="st0" d="M129.7,143.1l-5.3,1c-0.4,0.1-0.8,0.1-1.2,0l-1.7-0.5c-0.3-0.1-0.2-0.2,0.2-0.3l5.3-1c0.4-0.1,0.8-0.1,1.1,0
	l1.7,0.5C130.2,142.9,130.1,143,129.7,143.1z"/>
<path class="st0" d="M137.5,141.6l-5.1,1c-0.4,0.1-0.8,0.1-1.1,0l-1.7-0.5c-0.3-0.1-0.2-0.2,0.2-0.3l5.1-1c0.4-0.1,0.7-0.1,1.1,0
	l1.7,0.5C137.9,141.4,137.9,141.5,137.5,141.6z"/>
<path class="st0" d="M145,140.1l-4.9,1c-0.4,0.1-0.7,0.1-1.1,0l-1.7-0.5c-0.3-0.1-0.2-0.2,0.1-0.2l4.9-0.9c0.4-0.1,0.7-0.1,1.1,0
	l1.7,0.5C145.4,140,145.3,140.1,145,140.1z"/>
<path class="st0" d="M152.2,138.7l-4.7,0.9c-0.4,0.1-0.7,0.1-1.1,0l-1.7-0.5c-0.3-0.1-0.2-0.2,0.1-0.2l4.7-0.9
	c0.4-0.1,0.7-0.1,1.1,0l1.7,0.4C152.5,138.6,152.5,138.7,152.2,138.7z"/>
<path class="st0" d="M159.1,137.4l-4.5,0.9c-0.4,0.1-0.7,0.1-1.1,0l-1.7-0.4c-0.3-0.1-0.2-0.2,0.1-0.2l4.5-0.9
	c0.3-0.1,0.7-0.1,1.1,0l1.7,0.4C159.4,137.3,159.4,137.3,159.1,137.4z"/>
<path class="st0" d="M165.7,136.1l-4.4,0.8c-0.3,0.1-0.7,0.1-1.1,0l-1.8-0.4c-0.3-0.1-0.2-0.2,0.1-0.2l4.3-0.8c0.3-0.1,0.7-0.1,1,0
	l1.8,0.4C166,136,166,136.1,165.7,136.1z"/>
<path class="st0" d="M172.1,134.9l-4.2,0.8c-0.3,0.1-0.7,0.1-1,0l-1.8-0.4c-0.3-0.1-0.3-0.2,0-0.2l4.2-0.8c0.3-0.1,0.7-0.1,1,0
	l1.8,0.4C172.4,134.7,172.4,134.8,172.1,134.9z"/>
<path class="st0" d="M178.2,133.7l-4,0.8c-0.3,0.1-0.7,0.1-1,0l-1.8-0.4c-0.3-0.1-0.3-0.2,0-0.2l4-0.8c0.3-0.1,0.7-0.1,1,0l1.8,0.4
	C178.5,133.6,178.5,133.6,178.2,133.7z"/>
<polygon class="st0" points="50.3,34.6 53.9,143 168.8,124.6 170.8,40.6 "/>
<path class="st0" d="M173.1,129.6v-1.5c0,0,1.8-84.9,1.8-88.5s-3.6-3.9-3.6-3.9L48,27.7l0,0c-0.1,0-3.9,0.3-3.9,6.6
	c0,5.3,1.4,90.9,3.3,116.2c0.3,3.8,1.5,3.9,1.5,3.9c0.4-1.3,1.6-2.3,3-2.4c4.3-0.7,15-2.8,15.9-3c0,0,0,0,0,0
	c-0.3-0.2-2.2-1.5,0.8-1.9c3.2-0.4,90.5-16.2,91.6-16.4l0,0l1.4,1.2l0,0c0.4-0.1,9.8-2.4,12.8-1.8c3,0.6,82.2,17.5,83.5,17.7l0,0
	l0.1,0.5c0.1,0.7-0.3,1.4-1,1.6l0,0c-1.8,0.6-123.4,38.7-123.4,38.7s-5.4,1.5-8.7,0c-3.3-1.5-73.2-33-73.2-33l-2.7-1.2l0,0
	c-0.2,0.6-0.2,1.3,0,1.9c0.4,1.1,1.1,2,2.2,2.5c8.4,4.2,68.5,33.9,73.4,34.9c5.4,1.2,8.7-0.3,8.7-0.3l0,0L256,154l0,0
	c0,0,3.3-1.6,1.8-6.3"/>
<circle class="st1" cx="117.3" cy="35.2" r="1.4"/>
<polygon class="st0" points="138.7,161.1 168.1,172.8 211,159.5 180.9,150.7 "/>
<path class="st0" d="M308.9,135.5l-39.5-18c-1.4-0.6-2.6-2.7-2.6-4.7V47.2c0-1.9,1.1-3.6,2.6-3.6l39.5-1.7c2.3,0,4.3,1.9,4.3,4.2
	c0,0.1,0,0.2,0,0.2v86.6C313.2,135.4,311.2,136.5,308.9,135.5z"/>
<path class="st0" d="M311.5,137.4l-42-19.3c-1.4-0.7-2.6-2.8-2.6-4.7V46.5c0-1.9,1.1-3.6,2.6-3.6l42-2.1c2.4,0,4.3,1.9,4.4,4.2
	c0,0.1,0,0.2,0,0.3v89.5C315.9,137.3,313.9,138.5,311.5,137.4z"/>
<polygon class="st0" points="309.4,129.7 269.2,112.6 269.2,48.3 309.4,47.8 "/>
<path class="st1" d="M287.4,45.8c0,0.3-0.2,0.6-0.5,0.7c-0.3,0-0.6-0.3-0.5-0.6c0-0.3,0.2-0.6,0.5-0.7
	C287.2,45.2,287.4,45.5,287.4,45.8C287.4,45.8,287.4,45.8,287.4,45.8z"/>
<path class="st1" d="M288.2,123.4c0,0.9-0.6,1.4-1.3,1c-0.8-0.4-1.3-1.3-1.3-2.2c0-0.9,0.6-1.3,1.3-1
	C287.6,121.7,288.1,122.5,288.2,123.4z"/>
<path class="st0" d="M250.7,107.9l-11.5-3.8c-2-0.7-3.6-3.3-3.6-5.9V63.5c0-2.6,1.6-4.7,3.6-4.7l11.5-0.2c2.5,0,4.5,2.4,4.5,5.3v40
	C255.3,107,253.2,108.8,250.7,107.9z"/>
<path class="st0" d="M251.5,108.3l-12.3-4.1c-2-0.7-3.6-3.3-3.6-5.9V63.6c0-2.6,1.6-4.7,3.6-4.7l12.3-0.2c2.5,0,4.6,2.4,4.6,5.4
	v40.3C256.2,107.3,254,109,251.5,108.3z"/>
<polygon class="st0" points="253.7,103.6 236.8,98.6 236.8,63.6 253.7,63.9 "/>
<path class="st0" d="M246,103.7c0,0.9-0.6,1.4-1.3,1.1c-0.8-0.3-1.2-1.1-1.2-1.9c0-0.8,0.5-1.4,1.2-1.2
	C245.5,102.1,246,102.8,246,103.7z"/>
</svg>
