<?xml version="1.0" encoding="utf-8"?>
<!-- Generator: Adobe Illustrator 23.0.6, SVG Export Plug-In . SVG Version: 6.00 Build 0)  -->
<svg version="1.1" id="Layer_1" xmlns="http://www.w3.org/2000/svg" xmlns:xlink="http://www.w3.org/1999/xlink" x="0px" y="0px"
	 viewBox="0 0 500 250" style="enable-background:new 0 0 500 250;" xml:space="preserve">
<style type="text/css">
	.st0{fill:none;stroke:#D2ECE5;stroke-miterlimit:10;}
	.st1{fill:none;stroke:#D2ECE5;stroke-width:0.5;stroke-miterlimit:10;}
	.st2{fill:none;stroke:#D2EBE5;}
</style>
<path class="st0" d="M162,203.9"/>
<path class="st0" d="M156.7,178l-8.6,1.7c-0.6,0.1-1.3,0.1-1.6,0l-1.9-0.8c-0.3-0.1,0-0.3,0.6-0.4l8.6-1.6c0.6-0.1,1.3-0.1,1.6,0
	l1.9,0.8C157.5,177.7,157.3,177.9,156.7,178z"/>
<path class="st0" d="M163.5,180.7l-8.8,1.8c-0.6,0.1-1.4,0.1-1.7,0l-4.7-2c-0.3-0.1-0.1-0.3,0.6-0.5l8.7-1.7c0.6-0.1,1.3-0.1,1.6,0
	l4.8,1.9C164.3,180.4,164.1,180.6,163.5,180.7z"/>
<path class="st0" d="M178,181.9l-16.7,3.5c-0.6,0.1-1.4,0.1-1.7,0l-4.9-2.1c-0.3-0.1-0.1-0.4,0.5-0.5l16.6-3.4
	c0.6-0.1,1.3-0.1,1.6,0l5,2C178.8,181.5,178.6,181.7,178,181.9z"/>
<path class="st0" d="M188.1,184.2l-19.7,4.3c-0.6,0.1-1.4,0.1-1.8,0l-5.2-2.2c-0.3-0.1-0.1-0.4,0.5-0.5l19.5-4.1
	c0.6-0.1,1.3-0.1,1.7,0l5.3,2.1C188.9,183.8,188.7,184,188.1,184.2z"/>
<path class="st0" d="M200.5,186l-24.6,5.6c-0.6,0.1-1.4,0.1-1.8,0l-5.4-2.4c-0.4-0.2-0.1-0.4,0.5-0.5l24.4-5.4
	c0.6-0.1,1.3-0.1,1.7,0l5.6,2.1C201.2,185.7,201.1,185.9,200.5,186z"/>
<path class="st0" d="M190.3,179.3l-8.2,1.7c-0.6,0.1-1.3,0.1-1.7,0l-5.1-2c-0.3-0.1-0.1-0.3,0.4-0.4l8.2-1.7c0.5-0.1,1.3-0.1,1.6,0
	l5.1,1.9C191,179,190.9,179.2,190.3,179.3z"/>
<path class="st0" d="M200,181.5l-8.2,1.8c-0.6,0.1-1.3,0.1-1.7,0l-5.3-2c-0.3-0.1-0.2-0.3,0.4-0.5l8.2-1.7c0.5-0.1,1.3-0.1,1.6,0
	l5.4,2C200.7,181.2,200.6,181.4,200,181.5z"/>
<path class="st0" d="M212.4,183.3l-8.1,1.9c-0.6,0.1-1.3,0.1-1.7,0l-5.6-2.1c-0.4-0.1-0.2-0.3,0.4-0.5l8.1-1.8
	c0.5-0.1,1.3-0.1,1.6,0l5.7,2C213,182.9,212.9,183.2,212.4,183.3z"/>
<path class="st0" d="M193.1,193l-9.2,2.2c-0.6,0.2-1.5,0.1-1.9,0l-5.7-2.5c-0.4-0.2-0.2-0.4,0.5-0.6l9.1-2.1c0.6-0.1,1.4-0.1,1.8,0
	l5.8,2.4C193.9,192.6,193.7,192.8,193.1,193z"/>
<path class="st0" d="M205.9,189.9l-8.7,2.1c-0.6,0.1-1.4,0.1-1.8,0l-5.8-2.4c-0.4-0.2-0.2-0.4,0.4-0.5l8.7-2c0.6-0.1,1.4-0.1,1.7,0
	l5.9,2.3C206.6,189.5,206.5,189.8,205.9,189.9z"/>
<path class="st0" d="M218,187l-8.3,2c-0.6,0.1-1.4,0.1-1.8,0l-5.9-2.2c-0.4-0.1-0.2-0.4,0.3-0.5l8.2-1.9c0.5-0.1,1.3-0.1,1.7,0
	l6,2.2C218.7,186.6,218.6,186.9,218,187z"/>
<path class="st0" d="M229.5,184.3l-7.9,1.9c-0.5,0.1-1.3,0.1-1.7,0l-6-2.1c-0.4-0.1-0.3-0.4,0.3-0.5l7.8-1.8c0.5-0.1,1.3-0.1,1.7,0
	l6,2.1C230.1,183.9,230,184.1,229.5,184.3z"/>
<path class="st0" d="M281.3,171.8L233,183.4c-0.5,0.1-1.3,0.1-1.7,0l-6-2c-0.4-0.1-0.3-0.3,0.2-0.5l48.2-11.1c0.4-0.1,1.1-0.1,1.5,0
	l6.1,1.6C281.8,171.6,281.8,171.7,281.3,171.8z"/>
<path class="st0" d="M289.8,169.8l-5.9,1.4c-0.4,0.1-1.1,0.1-1.5,0l-6.1-1.6c-0.4-0.1-0.4-0.3,0-0.4l5.9-1.4c0.4-0.1,1-0.1,1.4,0
	l6.1,1.6C290.1,169.6,290.1,169.7,289.8,169.8z"/>
<path class="st0" d="M297.8,167.9l-5.6,1.4c-0.4,0.1-1,0.1-1.5,0l-6.1-1.6c-0.4-0.1-0.4-0.3,0-0.3l5.6-1.3c0.4-0.1,1-0.1,1.4,0
	l6.1,1.5C298.2,167.6,298.2,167.8,297.8,167.9z"/>
<path class="st0" d="M307.2,165.6l-5.4,1.3c-0.4,0.1-1,0.1-1.4,0l-2.3-0.6c-0.4-0.1-0.4-0.2-0.1-0.3l5.4-1.3c0.4-0.1,1-0.1,1.4,0
	l2.3,0.6C307.5,165.4,307.6,165.6,307.2,165.6z"/>
<path class="st0" d="M314.6,163.9l-5.2,1.2c-0.4,0.1-1,0.1-1.4,0l-2.3-0.5c-0.4-0.1-0.4-0.2-0.1-0.3l5.2-1.2c0.3-0.1,1-0.1,1.4,0
	l2.3,0.5C314.9,163.6,315,163.8,314.6,163.9z"/>
<path class="st0" d="M310.6,163l-5.2,1.2c-0.4,0.1-1,0.1-1.4,0l-2.3-0.5c-0.4-0.1-0.4-0.2-0.1-0.3l5.2-1.2c0.3-0.1,1-0.1,1.3,0
	l2.3,0.5C310.9,162.7,311,162.9,310.6,163z"/>
<path class="st0" d="M321.9,162.1l-4.9,1.2c-0.3,0.1-1,0.1-1.4,0l-2.3-0.5c-0.4-0.1-0.5-0.2-0.1-0.3l5-1.2c0.3-0.1,0.9-0.1,1.3,0
	l2.3,0.5C322.2,161.9,322.3,162,321.9,162.1z"/>
<path class="st0" d="M223.4,180.7l-7.7,1.8c-0.5,0.1-1.3,0.1-1.7,0l-5.7-2c-0.4-0.1-0.2-0.3,0.3-0.4l7.7-1.7c0.5-0.1,1.2-0.1,1.6,0
	l5.7,1.9C224.1,180.4,224,180.6,223.4,180.7z"/>
<path class="st0" d="M234,178.3l-7.4,1.7c-0.5,0.1-1.2,0.1-1.6,0l-5.7-1.9c-0.4-0.1-0.3-0.3,0.2-0.4l7.3-1.6c0.5-0.1,1.2-0.1,1.6,0
	l5.8,1.8C234.6,178,234.5,178.2,234,178.3z"/>
<path class="st0" d="M244.1,176l-7,1.6c-0.5,0.1-1.2,0.1-1.6,0l-5.8-1.8c-0.4-0.1-0.3-0.3,0.2-0.4l7-1.5c0.5-0.1,1.2-0.1,1.5,0
	l5.8,1.8C244.6,175.7,244.5,175.9,244.1,176z"/>
<path class="st0" d="M253.7,173.8l-6.7,1.5c-0.5,0.1-1.2,0.1-1.6,0l-5.8-1.8c-0.4-0.1-0.3-0.3,0.2-0.4l6.7-1.5
	c0.4-0.1,1.1-0.1,1.5,0l5.8,1.7C254.2,173.5,254.2,173.7,253.7,173.8z"/>
<path class="st0" d="M262.9,171.7l-6.4,1.5c-0.4,0.1-1.1,0.1-1.5,0l-5.8-1.7c-0.4-0.1-0.3-0.3,0.1-0.4l6.4-1.4
	c0.4-0.1,1.1-0.1,1.5,0l5.9,1.6C263.4,171.5,263.4,171.6,262.9,171.7z"/>
<path class="st0" d="M271.8,169.7l-6.2,1.4c-0.4,0.1-1.1,0.1-1.5,0l-5.9-1.6c-0.4-0.1-0.3-0.3,0.1-0.4l6.2-1.4
	c0.4-0.1,1.1-0.1,1.4,0l5.9,1.6C272.2,169.5,272.2,169.6,271.8,169.7z"/>
<path class="st0" d="M280.2,167.8l-5.9,1.4c-0.4,0.1-1.1,0.1-1.5,0l-5.9-1.6c-0.4-0.1-0.4-0.3,0.1-0.3l5.9-1.3c0.4-0.1,1-0.1,1.4,0
	l5.9,1.5C280.6,167.5,280.6,167.7,280.2,167.8z"/>
<path class="st0" d="M288.3,165.9l-5.7,1.3c-0.4,0.1-1,0.1-1.4,0l-5.9-1.5c-0.4-0.1-0.4-0.2,0-0.3l5.7-1.2c0.4-0.1,1-0.1,1.4,0
	l5.9,1.4C288.7,165.7,288.7,165.8,288.3,165.9z"/>
<path class="st0" d="M296.1,164.1l-5.4,1.2c-0.4,0.1-1,0.1-1.4,0l-5.9-1.4c-0.4-0.1-0.4-0.2,0-0.3l5.4-1.2c0.4-0.1,1-0.1,1.4,0
	l5.9,1.4C296.4,163.9,296.5,164.1,296.1,164.1z"/>
<path class="st0" d="M313.5,160.2l-15.2,3.5c-0.4,0.1-1,0.1-1.4,0l-5.9-1.4c-0.4-0.1-0.4-0.2,0-0.3l15.2-3.3c0.3-0.1,0.9-0.1,1.3,0
	l5.8,1.3C313.8,160,313.9,160.1,313.5,160.2z"/>
<path class="st0" d="M211.4,179.1l-7.8,1.7c-0.5,0.1-1.3,0.1-1.6,0l-5.4-2c-0.3-0.1-0.2-0.3,0.3-0.4l7.8-1.6c0.5-0.1,1.2-0.1,1.6,0
	l5.5,1.9C212,178.8,211.9,179,211.4,179.1z"/>
<path class="st0" d="M222.1,176.7l-7.5,1.6c-0.5,0.1-1.2,0.1-1.6,0l-5.5-1.9c-0.4-0.1-0.2-0.3,0.3-0.4l7.4-1.6
	c0.5-0.1,1.2-0.1,1.5,0l5.5,1.8C222.7,176.4,222.6,176.6,222.1,176.7z"/>
<path class="st0" d="M232.4,174.5l-7.1,1.6c-0.5,0.1-1.2,0.1-1.6,0l-5.5-1.8c-0.4-0.1-0.2-0.3,0.2-0.4l7.1-1.5
	c0.5-0.1,1.2-0.1,1.5,0l5.6,1.7C233,174.2,232.9,174.4,232.4,174.5z"/>
<path class="st0" d="M242.3,172.3l-6.8,1.5c-0.5,0.1-1.2,0.1-1.5,0l-5.6-1.7c-0.4-0.1-0.3-0.3,0.2-0.4l6.8-1.4
	c0.5-0.1,1.1-0.1,1.5,0l5.6,1.7C242.8,172,242.7,172.2,242.3,172.3z"/>
<path class="st0" d="M251.7,170.2l-6.5,1.4c-0.5,0.1-1.1,0.1-1.5,0l-5.6-1.6c-0.4-0.1-0.3-0.3,0.2-0.4l6.5-1.4
	c0.4-0.1,1.1-0.1,1.5,0l5.6,1.6C252.2,170,252.1,170.1,251.7,170.2z"/>
<path class="st0" d="M260.7,168.3l-6.2,1.4c-0.4,0.1-1.1,0.1-1.5,0l-5.6-1.6c-0.4-0.1-0.3-0.3,0.1-0.4l6.2-1.3
	c0.4-0.1,1.1-0.1,1.4,0l5.6,1.5C261.2,168,261.1,168.2,260.7,168.3z"/>
<path class="st0" d="M269.3,166.4l-6,1.3c-0.4,0.1-1.1,0.1-1.4,0l-5.6-1.5c-0.4-0.1-0.3-0.2,0.1-0.3l6-1.3c0.4-0.1,1-0.1,1.4,0
	l5.6,1.5C269.8,166.1,269.7,166.3,269.3,166.4z"/>
<path class="st0" d="M277.6,164.6l-5.7,1.3c-0.4,0.1-1,0.1-1.4,0l-5.6-1.5c-0.4-0.1-0.3-0.2,0.1-0.3l5.7-1.2c0.4-0.1,1-0.1,1.4,0
	l5.6,1.4C278,164.3,278,164.5,277.6,164.6z"/>
<path class="st0" d="M285.6,162.8l-5.5,1.2c-0.4,0.1-1,0.1-1.4,0l-5.6-1.4c-0.4-0.1-0.4-0.2,0-0.3l5.5-1.2c0.4-0.1,1-0.1,1.3,0
	l5.6,1.4C286,162.6,286,162.7,285.6,162.8z"/>
<path class="st0" d="M293.2,161.1l-5.3,1.2c-0.4,0.1-1,0.1-1.4,0l-5.6-1.4c-0.4-0.1-0.4-0.2,0-0.3l5.3-1.1c0.4-0.1,0.9-0.1,1.3,0
	l5.6,1.3C293.6,160.9,293.6,161.1,293.2,161.1z"/>
<path class="st0" d="M305.5,158.4l-10,2.2c-0.4,0.1-0.9,0.1-1.3,0l-5.6-1.3c-0.4-0.1-0.4-0.2,0-0.3l10-2.1c0.3-0.1,0.9-0.1,1.3,0
	l5.6,1.2C305.8,158.2,305.9,158.4,305.5,158.4z"/>
<path class="st0" d="M201.5,176.9l-7.8,1.6c-0.5,0.1-1.3,0.1-1.6,0l-5.1-1.9c-0.3-0.1-0.2-0.3,0.4-0.4l7.8-1.6
	c0.5-0.1,1.2-0.1,1.6,0l5.2,1.8C202.2,176.6,202,176.8,201.5,176.9z"/>
<path class="st0" d="M212.2,174.7l-7.5,1.6c-0.5,0.1-1.2,0.1-1.6,0l-5.2-1.8c-0.3-0.1-0.2-0.3,0.3-0.4l7.4-1.5
	c0.5-0.1,1.2-0.1,1.5,0l5.3,1.7C212.9,174.4,212.7,174.6,212.2,174.7z"/>
<path class="st0" d="M222.5,172.5l-7.2,1.5c-0.5,0.1-1.2,0.1-1.5,0l-5.3-1.7c-0.3-0.1-0.2-0.3,0.3-0.4l7.1-1.4
	c0.5-0.1,1.1-0.1,1.5,0l5.3,1.7C223,172.2,222.9,172.4,222.5,172.5z"/>
<path class="st0" d="M232.3,170.5l-6.9,1.4c-0.5,0.1-1.2,0.1-1.5,0l-5.3-1.7c-0.3-0.1-0.2-0.3,0.2-0.4l6.8-1.4
	c0.5-0.1,1.1-0.1,1.5,0l5.3,1.6C232.8,170.2,232.7,170.4,232.3,170.5z"/>
<path class="st0" d="M241.6,168.5l-6.6,1.4c-0.5,0.1-1.1,0.1-1.5,0l-5.3-1.6c-0.3-0.1-0.3-0.3,0.2-0.4l6.5-1.3
	c0.4-0.1,1.1-0.1,1.4,0l5.4,1.5C242.1,168.2,242.1,168.4,241.6,168.5z"/>
<path class="st0" d="M250.6,166.6l-6.3,1.3c-0.4,0.1-1.1,0.1-1.4,0l-5.4-1.5c-0.3-0.1-0.3-0.3,0.2-0.3l6.3-1.3c0.4-0.1,1-0.1,1.4,0
	l5.4,1.5C251.1,166.4,251.1,166.5,250.6,166.6z"/>
<path class="st0" d="M259.3,164.8l-6,1.3c-0.4,0.1-1.1,0.1-1.4,0l-5.4-1.5c-0.3-0.1-0.3-0.2,0.1-0.3l6-1.2c0.4-0.1,1-0.1,1.4,0
	l5.4,1.4C259.7,164.6,259.7,164.7,259.3,164.8z"/>
<path class="st0" d="M267.6,163l-5.8,1.2c-0.4,0.1-1,0.1-1.4,0l-5.4-1.4c-0.4-0.1-0.3-0.2,0.1-0.3l5.8-1.2c0.4-0.1,1-0.1,1.3,0
	l5.4,1.4C268,162.8,268,163,267.6,163z"/>
<path class="st0" d="M275.5,161.4l-5.6,1.2c-0.4,0.1-1,0.1-1.4,0l-5.4-1.4c-0.4-0.1-0.3-0.2,0.1-0.3l5.6-1.1c0.4-0.1,1-0.1,1.3,0
	l5.4,1.3C275.9,161.2,275.9,161.3,275.5,161.4z"/>
<path class="st0" d="M283.2,159.8l-5.4,1.1c-0.4,0.1-1,0.1-1.3,0l-5.4-1.3c-0.4-0.1-0.3-0.2,0-0.3l5.4-1.1c0.4-0.1,0.9-0.1,1.3,0
	l5.4,1.3C283.5,159.6,283.6,159.7,283.2,159.8z"/>
<path class="st0" d="M290.6,158.2l-5.2,1.1c-0.4,0.1-0.9,0.1-1.3,0l-5.4-1.3c-0.4-0.1-0.3-0.2,0-0.3l5.2-1c0.3-0.1,0.9-0.1,1.3,0
	l5.4,1.2C290.9,158,290.9,158.1,290.6,158.2z"/>
<path class="st0" d="M297.7,156.7l-5,1c-0.3,0.1-0.9,0.1-1.3,0l-5.4-1.2c-0.4-0.1-0.4-0.2,0-0.3l5-1c0.3-0.1,0.9-0.1,1.2,0l5.4,1.2
	C298,156.5,298,156.7,297.7,156.7z"/>
<path class="st0" d="M175.6,178.3l-8.4,1.7c-0.6,0.1-1.3,0.1-1.6,0l-4.8-1.9c-0.3-0.1-0.1-0.3,0.5-0.4l8.3-1.6
	c0.6-0.1,1.3-0.1,1.6,0l4.9,1.9C176.3,178,176.1,178.2,175.6,178.3z"/>
<path class="st0" d="M187.1,176l-8,1.6c-0.6,0.1-1.3,0.1-1.6,0l-4.9-1.8c-0.3-0.1-0.1-0.3,0.4-0.4l8-1.6c0.5-0.1,1.2-0.1,1.5,0
	l4.9,1.8C187.8,175.7,187.6,175.9,187.1,176z"/>
<path class="st0" d="M198.1,173.8l-7.7,1.5c-0.5,0.1-1.2,0.1-1.6,0l-4.9-1.8c-0.3-0.1-0.1-0.3,0.4-0.4l7.6-1.5
	c0.5-0.1,1.2-0.1,1.5,0l5,1.7C198.7,173.5,198.6,173.7,198.1,173.8z"/>
<path class="st0" d="M208.6,171.6l-7.3,1.5c-0.5,0.1-1.2,0.1-1.5,0l-5-1.7c-0.3-0.1-0.2-0.3,0.3-0.4l7.3-1.4c0.5-0.1,1.2-0.1,1.5,0
	l5,1.6C209.2,171.4,209.1,171.5,208.6,171.6z"/>
<path class="st0" d="M218.7,169.6l-7,1.4c-0.5,0.1-1.2,0.1-1.5,0l-5.1-1.6c-0.3-0.1-0.2-0.3,0.3-0.4l7-1.4c0.5-0.1,1.1-0.1,1.4,0
	l5.1,1.6C219.3,169.3,219.1,169.5,218.7,169.6z"/>
<path class="st0" d="M228.3,167.6l-6.7,1.4c-0.5,0.1-1.1,0.1-1.5,0l-5.1-1.6c-0.3-0.1-0.2-0.3,0.2-0.3l6.7-1.3
	c0.4-0.1,1.1-0.1,1.4,0l5.1,1.5C228.9,167.4,228.8,167.6,228.3,167.6z"/>
<path class="st0" d="M237.6,165.8l-6.4,1.3c-0.4,0.1-1.1,0.1-1.4,0l-5.1-1.5c-0.3-0.1-0.2-0.2,0.2-0.3l6.4-1.3
	c0.4-0.1,1.1-0.1,1.4,0l5.2,1.5C238.1,165.5,238,165.7,237.6,165.8z"/>
<path class="st0" d="M246.5,164l-6.2,1.2c-0.4,0.1-1.1,0.1-1.4,0l-5.2-1.4c-0.3-0.1-0.3-0.2,0.2-0.3l6.2-1.2c0.4-0.1,1-0.1,1.4,0
	l5.2,1.4C246.9,163.8,246.9,163.9,246.5,164z"/>
<path class="st0" d="M255,162.3l-5.9,1.2c-0.4,0.1-1,0.1-1.4,0l-5.2-1.4c-0.3-0.1-0.3-0.2,0.1-0.3l5.9-1.2c0.4-0.1,1-0.1,1.3,0
	l5.2,1.3C255.4,162,255.4,162.2,255,162.3z"/>
<path class="st0" d="M263.2,160.6l-5.7,1.2c-0.4,0.1-1,0.1-1.4,0l-5.2-1.3c-0.3-0.1-0.3-0.2,0.1-0.3l5.7-1.1c0.4-0.1,1-0.1,1.3,0
	l5.2,1.3C263.6,160.4,263.6,160.5,263.2,160.6z"/>
<path class="st0" d="M271.1,159l-5.5,1.1c-0.4,0.1-1,0.1-1.3,0l-5.2-1.3c-0.3-0.1-0.3-0.2,0.1-0.3l5.5-1.1c0.4-0.1,0.9-0.1,1.3,0
	l5.2,1.3C271.4,158.8,271.4,158.9,271.1,159z"/>
<path class="st0" d="M278.7,157.5l-5.3,1.1c-0.4,0.1-1,0.1-1.3,0l-5.2-1.2c-0.3-0.1-0.3-0.2,0-0.3l5.3-1c0.4-0.1,0.9-0.1,1.3,0
	l5.2,1.2C279,157.3,279,157.4,278.7,157.5z"/>
<path class="st0" d="M290.4,155.1l-9.5,1.9c-0.4,0.1-0.9,0.1-1.3,0l-5.2-1.2c-0.3-0.1-0.3-0.2,0-0.3l9.5-1.9c0.3-0.1,0.9-0.1,1.2,0
	l5.2,1.1C290.7,154.9,290.7,155.1,290.4,155.1z"/>
<path class="st0" d="M169.2,175.6l-8.2,1.6c-0.6,0.1-1.3,0.1-1.6,0l-1.9-0.8c-0.3-0.1-0.1-0.3,0.5-0.4l8.2-1.6
	c0.6-0.1,1.3-0.1,1.6,0l2,0.8C170,175.3,169.8,175.5,169.2,175.6z"/>
<path class="st0" d="M181.1,173.3l-7.8,1.5c-0.5,0.1-1.3,0.1-1.6,0l-2-0.7c-0.3-0.1-0.1-0.3,0.4-0.4l7.8-1.5c0.5-0.1,1.2-0.1,1.5,0
	l2,0.7C181.8,173,181.7,173.2,181.1,173.3z"/>
<path class="st0" d="M192.5,171.1l-7.5,1.4c-0.5,0.1-1.2,0.1-1.5,0l-2-0.7c-0.3-0.1-0.1-0.3,0.4-0.4l7.4-1.4c0.5-0.1,1.2-0.1,1.5,0
	l2,0.7C193.2,170.8,193,171,192.5,171.1z"/>
<path class="st0" d="M203.4,168.9l-7.1,1.4c-0.5,0.1-1.2,0.1-1.5,0l-2-0.7c-0.3-0.1-0.2-0.3,0.3-0.4l7.1-1.4c0.5-0.1,1.1-0.1,1.5,0
	l2.1,0.7C204,168.7,203.9,168.8,203.4,168.9z"/>
<path class="st0" d="M213.8,166.9l-6.8,1.3c-0.5,0.1-1.1,0.1-1.5,0l-2.1-0.7c-0.3-0.1-0.2-0.3,0.3-0.3l6.8-1.3
	c0.5-0.1,1.1-0.1,1.4,0l2.1,0.6C214.4,166.7,214.3,166.8,213.8,166.9z"/>
<path class="st0" d="M223.7,165l-6.5,1.3c-0.5,0.1-1.1,0.1-1.4,0l-2.1-0.6c-0.3-0.1-0.2-0.2,0.2-0.3l6.5-1.2c0.4-0.1,1.1-0.1,1.4,0
	l2.1,0.6C224.3,164.8,224.2,164.9,223.7,165z"/>
<path class="st0" d="M233.3,163.1l-6.3,1.2c-0.4,0.1-1.1,0.1-1.4,0l-2.1-0.6c-0.3-0.1-0.2-0.2,0.2-0.3l6.2-1.2c0.4-0.1,1-0.1,1.4,0
	l2.1,0.6C233.8,162.9,233.7,163.1,233.3,163.1z"/>
<path class="st0" d="M242.4,161.4l-6,1.2c-0.4,0.1-1,0.1-1.4,0l-2.1-0.6c-0.3-0.1-0.3-0.2,0.2-0.3l6-1.1c0.4-0.1,1-0.1,1.3,0
	l2.1,0.6C242.9,161.2,242.8,161.3,242.4,161.4z"/>
<path class="st0" d="M251.2,159.7l-5.8,1.1c-0.4,0.1-1,0.1-1.3,0l-2.1-0.6c-0.3-0.1-0.3-0.2,0.1-0.3l5.8-1.1c0.4-0.1,1-0.1,1.3,0
	l2.1,0.5C251.6,159.5,251.6,159.6,251.2,159.7z"/>
<path class="st0" d="M259.6,158l-5.5,1.1c-0.4,0.1-1,0.1-1.3,0l-2.1-0.5c-0.3-0.1-0.3-0.2,0.1-0.3l5.5-1.1c0.4-0.1,1-0.1,1.3,0
	l2.1,0.5C260,157.8,260,158,259.6,158z"/>
<path class="st0" d="M267.7,156.5l-5.3,1c-0.4,0.1-1,0.1-1.3,0L259,157c-0.3-0.1-0.3-0.2,0.1-0.3l5.3-1c0.4-0.1,0.9-0.1,1.3,0
	l2.1,0.5C268.1,156.3,268.1,156.4,267.7,156.5z"/>
<path class="st0" d="M275.5,155l-5.1,1c-0.4,0.1-0.9,0.1-1.3,0l-2.1-0.5c-0.3-0.1-0.3-0.2,0-0.3l5.1-1c0.3-0.1,0.9-0.1,1.2,0
	l2.1,0.5C275.9,154.8,275.9,154.9,275.5,155z"/>
<path class="st0" d="M283,153.5l-4.9,1c-0.3,0.1-0.9,0.1-1.2,0l-2.1-0.5c-0.3-0.1-0.3-0.2,0-0.3l4.9-0.9c0.3-0.1,0.9-0.1,1.2,0
	l2.1,0.5C283.3,153.3,283.4,153.4,283,153.5z"/>
<polygon class="st0" points="126.6,32.3 131,164.9 271.5,142.4 273.9,39.6 "/>
<path class="st0" d="M276.8,148.5v-1.8c0,0,2.2-103.8,2.2-108.2s-4.4-4.8-4.4-4.8l-150.9-9.9l0,0c-0.1,0-4.8,0.4-4.8,8.1
	c0,6.5,1.7,111.2,4.1,142.1c0.4,4.7,1.8,4.7,1.8,4.7s0.6-2.4,3.7-2.9c5.3-0.9,18.3-3.5,19.4-3.7c0,0,0,0,0-0.1
	c-0.4-0.3-2.7-1.8,0.9-2.3c3.9-0.5,110.7-19.8,112.1-20.1l0,0l1.7,1.4l0,0c0.5-0.1,12.1-2.9,15.6-2.2c3.6,0.7,100.5,21.3,102,21.7
	l0,0l0.1,0.6c0.1,0.9-0.4,1.7-1.2,2l0,0c-2.2,0.7-150.9,47.4-150.9,47.4s-6.6,1.8-10.6,0S128,180.1,128,180.1l-3.3-1.5l0,0
	c-0.3,0.8-0.2,1.6,0,2.3c0.4,1.3,1.4,2.4,2.7,3c10.3,5.1,83.7,41.4,89.9,42.7c6.6,1.5,10.6-0.4,10.6-0.4l0,0L378,178.1l0,0
	c0,0,4-2,2.2-7.7"/>
<circle class="st1" cx="208.5" cy="33" r="1.7"/>
<polygon class="st0" points="234.7,187 270.6,201.3 323.2,185 286.3,174.3 "/>
<g>
	<path class="st2" d="M186.9,71.2v6.3l-25,11.6l25,11.6v6.3l-31.8-15.2v-5.4L186.9,71.2z"/>
	<path class="st2" d="M215.4,60.1h5.1l-29.1,67.2h-5.2L215.4,60.1z"/>
	<path class="st2" d="M221,107.1v-6.3l25-11.6l-25-11.7v-6.3l31.8,15.2v5.4L221,107.1z"/>
</g>
</svg>
