<svg id="Layer_1" data-name="Layer 1" xmlns="http://www.w3.org/2000/svg" viewBox="0 0 360.76 221.31"><defs><style>.cls-1,.cls-2{fill:none;stroke:#d2ece5;stroke-miterlimit:10;}.cls-2{stroke-width:0.5px;}</style></defs><title>icon1</title><path class="cls-1" d="M112.68,203.21" transform="translate(-65.63 -7.85)"/><path class="cls-1" d="M106.91,175.2,97.58,177a3.8,3.8,0,0,1-1.77,0l-2-.89c-.32-.14-.05-.35.6-.48l9.28-1.76a3.92,3.92,0,0,1,1.73,0l2.09.86C107.79,174.87,107.55,175.08,106.91,175.2Z" transform="translate(-65.63 -7.85)"/><path class="cls-1" d="M114.27,178.16l-9.55,1.93a4,4,0,0,1-1.82,0l-5.05-2.19c-.33-.15-.06-.37.6-.49l9.45-1.85a3.84,3.84,0,0,1,1.75,0l5.15,2.1C115.15,177.81,114.91,178,114.27,178.16Z" transform="translate(-65.63 -7.85)"/><path class="cls-1" d="M130,179.37l-18.09,3.8a4,4,0,0,1-1.87,0l-5.3-2.3c-.34-.15-.08-.38.58-.52l17.92-3.62a3.83,3.83,0,0,1,1.77,0l5.46,2.14C130.8,179,130.59,179.24,130,179.37Z" transform="translate(-65.63 -7.85)"/><path class="cls-1" d="M141,181.88l-21.28,4.66a4,4,0,0,1-1.91,0l-5.58-2.42c-.36-.15-.1-.4.57-.54l21.07-4.44a4,4,0,0,1,1.8,0l5.76,2.23C141.77,181.51,141.58,181.74,141,181.88Z" transform="translate(-65.63 -7.85)"/><path class="cls-1" d="M154.33,183.89,127.68,190a3.89,3.89,0,0,1-2,0l-5.87-2.54c-.37-.16-.13-.42.55-.57L146.8,181a4,4,0,0,1,1.83,0l6.08,2.29C155.12,183.5,155,183.75,154.33,183.89Z" transform="translate(-65.63 -7.85)"/><path class="cls-1" d="M143.32,176.57l-8.9,1.87a3.77,3.77,0,0,1-1.79,0l-5.48-2.12c-.35-.14-.14-.35.47-.48l8.82-1.78a3.91,3.91,0,0,1,1.72,0l5.56,2C144.09,176.23,143.91,176.45,143.32,176.57Z" transform="translate(-65.63 -7.85)"/><path class="cls-1" d="M153.85,179,145,181a3.8,3.8,0,0,1-1.82,0l-5.77-2.21c-.37-.15-.18-.37.43-.5l8.83-1.86a3.89,3.89,0,0,1,1.75,0l5.84,2.12C154.6,178.68,154.44,178.91,153.85,179Z" transform="translate(-65.63 -7.85)"/><path class="cls-1" d="M167.17,180.91l-8.79,2a3.94,3.94,0,0,1-1.85,0l-6.09-2.28c-.39-.15-.22-.38.39-.51l8.73-1.92a3.77,3.77,0,0,1,1.78,0l6.14,2.18C167.9,180.55,167.76,180.78,167.17,180.91Z" transform="translate(-65.63 -7.85)"/><path class="cls-1" d="M146.34,191.4l-10,2.38a3.89,3.89,0,0,1-2,0l-6.2-2.69c-.4-.17-.16-.45.52-.6l9.89-2.28a3.87,3.87,0,0,1,1.93,0l6.29,2.57C147.2,191,147,191.24,146.34,191.4Z" transform="translate(-65.63 -7.85)"/><path class="cls-1" d="M160.17,188.09l-9.45,2.26a4,4,0,0,1-2,0l-6.3-2.55c-.41-.17-.21-.42.44-.57l9.38-2.16a3.92,3.92,0,0,1,1.88,0l6.38,2.44C161,187.68,160.8,187.93,160.17,188.09Z" transform="translate(-65.63 -7.85)"/><path class="cls-1" d="M173.28,184.94l-9,2.15a3.94,3.94,0,0,1-1.91,0L156,184.64c-.41-.16-.24-.4.37-.54l8.91-2a3.9,3.9,0,0,1,1.84,0l6.45,2.33C174,184.56,173.88,184.8,173.28,184.94Z" transform="translate(-65.63 -7.85)"/><path class="cls-1" d="M185.74,182l-8.52,2a4,4,0,0,1-1.86,0l-6.47-2.31c-.41-.15-.27-.39.31-.52l8.48-2a4,4,0,0,1,1.79,0l6.51,2.22C186.41,181.59,186.31,181.83,185.74,182Z" transform="translate(-65.63 -7.85)"/><path class="cls-1" d="M241.83,168.53l-52.35,12.54a3.91,3.91,0,0,1-1.81,0l-6.52-2.2c-.42-.15-.31-.37.25-.5l52.2-12a4,4,0,0,1,1.59,0l6.64,1.76C242.27,168.24,242.27,168.43,241.83,168.53Z" transform="translate(-65.63 -7.85)"/><path class="cls-1" d="M250.92,166.36l-6.37,1.52a3.8,3.8,0,0,1-1.61,0l-6.63-1.75c-.43-.12-.42-.29,0-.39l6.37-1.47a3.86,3.86,0,0,1,1.55,0l6.64,1.69C251.33,166.08,251.35,166.25,250.92,166.36Z" transform="translate(-65.63 -7.85)"/><path class="cls-1" d="M259.67,164.26l-6.1,1.46a4,4,0,0,1-1.58,0L245.36,164c-.43-.11-.44-.28,0-.38l6.11-1.4a3.76,3.76,0,0,1,1.53,0l6.63,1.62C260.05,164,260.08,164.16,259.67,164.26Z" transform="translate(-65.63 -7.85)"/><path class="cls-1" d="M269.82,161.83,264,163.22a4,4,0,0,1-1.54,0l-2.54-.61c-.43-.11-.46-.27-.06-.37l5.81-1.36a4,4,0,0,1,1.5,0l2.54.6C270.16,161.57,270.2,161.73,269.82,161.83Z" transform="translate(-65.63 -7.85)"/><path class="cls-1" d="M277.83,159.91l-5.58,1.33a4,4,0,0,1-1.5,0l-2.54-.59c-.44-.1-.48-.26-.09-.35L273.7,159a3.84,3.84,0,0,1,1.47,0l2.53.57C278.14,159.66,278.2,159.82,277.83,159.91Z" transform="translate(-65.63 -7.85)"/><path class="cls-1" d="M273.53,158.93,268,160.24a3.94,3.94,0,0,1-1.49,0l-2.49-.58c-.43-.1-.46-.26-.07-.34l5.58-1.29a4,4,0,0,1,1.46,0l2.49.56C273.86,158.69,273.91,158.84,273.53,158.93Z" transform="translate(-65.63 -7.85)"/><path class="cls-1" d="M285.76,158l-5.35,1.28a3.89,3.89,0,0,1-1.48,0l-2.53-.57c-.43-.1-.48-.25-.11-.34l5.35-1.25a3.74,3.74,0,0,1,1.45,0l2.52.55C286.05,157.77,286.12,157.92,285.76,158Z" transform="translate(-65.63 -7.85)"/><path class="cls-1" d="M179.16,178.17l-8.37,1.92a3.9,3.9,0,0,1-1.81,0l-6.16-2.17c-.4-.14-.25-.36.33-.49l8.32-1.83a3.88,3.88,0,0,1,1.74,0l6.2,2.09C179.83,177.83,179.72,178.05,179.16,178.17Z" transform="translate(-65.63 -7.85)"/><path class="cls-1" d="M190.59,175.56l-8,1.83a4,4,0,0,1-1.76,0l-6.21-2.08c-.41-.13-.28-.34.26-.46l8-1.75a4,4,0,0,1,1.7,0l6.25,2C191.21,175.23,191.12,175.44,190.59,175.56Z" transform="translate(-65.63 -7.85)"/><path class="cls-1" d="M201.5,173.07l-7.63,1.74a4,4,0,0,1-1.72,0l-6.26-2c-.4-.13-.3-.33.22-.45l7.59-1.66a3.69,3.69,0,0,1,1.66,0l6.29,1.91C202.08,172.75,202,173,201.5,173.07Z" transform="translate(-65.63 -7.85)"/><path class="cls-1" d="M211.92,170.69l-7.28,1.66a3.84,3.84,0,0,1-1.69,0l-6.29-1.91c-.41-.12-.33-.31.17-.42l7.26-1.6a4,4,0,0,1,1.63,0l6.32,1.84C212.46,170.38,212.41,170.57,211.92,170.69Z" transform="translate(-65.63 -7.85)"/><path class="cls-1" d="M221.89,168.41l-7,1.59a4,4,0,0,1-1.65,0L207,168.15c-.41-.12-.35-.3.13-.41l6.95-1.52a3.69,3.69,0,0,1,1.59,0L222,168C222.39,168.12,222.36,168.3,221.89,168.41Z" transform="translate(-65.63 -7.85)"/><path class="cls-1" d="M231.44,166.22l-6.67,1.53a3.79,3.79,0,0,1-1.61,0L216.82,166c-.41-.12-.37-.29.09-.4l6.66-1.46a3.89,3.89,0,0,1,1.56,0l6.35,1.69C231.91,166,231.89,166.12,231.44,166.22Z" transform="translate(-65.63 -7.85)"/><path class="cls-1" d="M240.59,164.13l-6.39,1.47a3.82,3.82,0,0,1-1.58,0l-6.35-1.68c-.41-.11-.39-.28.06-.37l6.39-1.41a4.09,4.09,0,0,1,1.52,0l6.36,1.63C241,163.87,241,164,240.59,164.13Z" transform="translate(-65.63 -7.85)"/><path class="cls-1" d="M249.37,162.13l-6.14,1.4a3.8,3.8,0,0,1-1.54,0l-6.36-1.62c-.41-.1-.4-.27,0-.36l6.13-1.35a4,4,0,0,1,1.5,0l6.35,1.57C249.77,161.87,249.78,162,249.37,162.13Z" transform="translate(-65.63 -7.85)"/><path class="cls-1" d="M257.8,160.2l-5.9,1.35a4,4,0,0,1-1.51,0L244,160c-.41-.1-.42-.26,0-.35l5.9-1.29a3.78,3.78,0,0,1,1.46,0l6.35,1.51C258.16,160,258.19,160.11,257.8,160.2Z" transform="translate(-65.63 -7.85)"/><path class="cls-1" d="M276.65,155.89l-16.42,3.76a3.89,3.89,0,0,1-1.48,0l-6.35-1.5c-.41-.1-.43-.25,0-.34l16.46-3.61a3.89,3.89,0,0,1,1.4,0l6.31,1.38C277,155.67,277,155.81,276.65,155.89Z" transform="translate(-65.63 -7.85)"/><path class="cls-1" d="M166.08,176.36l-8.47,1.85a4,4,0,0,1-1.79,0L150,176.08c-.38-.14-.21-.35.37-.48l8.41-1.77a3.93,3.93,0,0,1,1.72,0l5.91,2C166.78,176,166.65,176.23,166.08,176.36Z" transform="translate(-65.63 -7.85)"/><path class="cls-1" d="M177.75,173.8l-8.08,1.77a4,4,0,0,1-1.74,0l-5.92-2c-.38-.13-.24-.34.32-.45l8-1.7a3.91,3.91,0,0,1,1.68,0l6,1.94C178.4,173.48,178.29,173.68,177.75,173.8Z" transform="translate(-65.63 -7.85)"/><path class="cls-1" d="M188.89,171.36l-7.72,1.69a3.87,3.87,0,0,1-1.7,0l-6-1.93c-.38-.13-.26-.32.27-.44l7.68-1.62a4.07,4.07,0,0,1,1.64,0l6,1.86C189.5,171.05,189.41,171.25,188.89,171.36Z" transform="translate(-65.63 -7.85)"/><path class="cls-1" d="M199.54,169l-7.38,1.62a3.83,3.83,0,0,1-1.66,0l-6-1.85c-.39-.12-.3-.3.21-.41l7.35-1.55a3.78,3.78,0,0,1,1.61,0l6,1.79C200.1,168.74,200,168.92,199.54,169Z" transform="translate(-65.63 -7.85)"/><path class="cls-1" d="M209.73,166.8l-7.06,1.54a3.87,3.87,0,0,1-1.63,0l-6-1.77c-.39-.12-.31-.3.18-.4l7-1.48a3.93,3.93,0,0,1,1.57,0l6.07,1.71C210.25,166.52,210.2,166.69,209.73,166.8Z" transform="translate(-65.63 -7.85)"/><path class="cls-1" d="M219.48,164.66l-6.76,1.48a3.69,3.69,0,0,1-1.59,0l-6.07-1.7c-.4-.11-.33-.29.13-.38l6.75-1.43a4.18,4.18,0,0,1,1.54,0l6.08,1.65C220,164.39,219.94,164.56,219.48,164.66Z" transform="translate(-65.63 -7.85)"/><path class="cls-1" d="M228.84,162.61,222.35,164a3.84,3.84,0,0,1-1.55,0l-6.09-1.64c-.4-.1-.36-.27.09-.36l6.47-1.37a4,4,0,0,1,1.51,0l6.1,1.59C229.29,162.35,229.27,162.52,228.84,162.61Z" transform="translate(-65.63 -7.85)"/><path class="cls-1" d="M237.81,160.65,231.59,162a3.93,3.93,0,0,1-1.53,0l-6.1-1.58c-.39-.1-.37-.26.06-.35l6.22-1.31a3.87,3.87,0,0,1,1.48,0l6.1,1.53C238.23,160.4,238.23,160.56,237.81,160.65Z" transform="translate(-65.63 -7.85)"/><path class="cls-1" d="M246.43,158.76l-6,1.31a3.93,3.93,0,0,1-1.49,0l-6.11-1.52c-.4-.1-.38-.25,0-.33l6-1.26a3.73,3.73,0,0,1,1.45,0l6.11,1.46C246.82,158.52,246.83,158.67,246.43,158.76Z" transform="translate(-65.63 -7.85)"/><path class="cls-1" d="M254.71,157,249,158.21a4.22,4.22,0,0,1-1.46,0l-6.11-1.47c-.4-.09-.4-.24,0-.32l5.75-1.21a4,4,0,0,1,1.42,0l6.1,1.41C255.07,156.72,255.09,156.86,254.71,157Z" transform="translate(-65.63 -7.85)"/><path class="cls-1" d="M268,154l-10.79,2.36a4,4,0,0,1-1.43,0L249.67,155c-.4-.09-.41-.23,0-.31l10.81-2.28a3.72,3.72,0,0,1,1.37,0l6.09,1.33C268.32,153.82,268.36,154,268,154Z" transform="translate(-65.63 -7.85)"/><path class="cls-1" d="M155.45,174,147,175.81a3.89,3.89,0,0,1-1.75,0l-5.56-2c-.36-.13-.18-.34.41-.45l8.42-1.71a4.12,4.12,0,0,1,1.69,0l5.62,2C156.17,173.7,156,173.9,155.45,174Z" transform="translate(-65.63 -7.85)"/><path class="cls-1" d="M167,171.59l-8.11,1.7a3.84,3.84,0,0,1-1.7,0l-5.64-2c-.36-.12-.2-.32.35-.43l8.06-1.63a3.93,3.93,0,0,1,1.65,0l5.68,1.88C167.7,171.28,167.57,171.48,167,171.59Z" transform="translate(-65.63 -7.85)"/><path class="cls-1" d="M178.11,169.27l-7.75,1.62a3.72,3.72,0,0,1-1.67,0L163,169c-.36-.13-.23-.31.3-.42L171,167a3.8,3.8,0,0,1,1.62,0l5.73,1.8C178.74,169,178.63,169.16,178.11,169.27Z" transform="translate(-65.63 -7.85)"/><path class="cls-1" d="M188.71,167l-7.42,1.56a3.86,3.86,0,0,1-1.63,0l-5.75-1.79c-.37-.12-.25-.3.26-.4l7.38-1.5a4,4,0,0,1,1.58,0l5.78,1.73C189.29,166.76,189.21,166.94,188.71,167Z" transform="translate(-65.63 -7.85)"/><path class="cls-1" d="M198.86,164.91l-7.11,1.49a4,4,0,0,1-1.59,0l-5.79-1.72c-.37-.11-.28-.28.21-.38l7.08-1.43a3.82,3.82,0,0,1,1.55,0l5.81,1.65C199.41,164.64,199.34,164.81,198.86,164.91Z" transform="translate(-65.63 -7.85)"/><path class="cls-1" d="M208.6,162.86l-6.82,1.44a4.05,4.05,0,0,1-1.56,0l-5.82-1.65c-.37-.1-.3-.27.17-.36l6.8-1.38a4,4,0,0,1,1.51,0l5.83,1.6C209.11,162.6,209.05,162.77,208.6,162.86Z" transform="translate(-65.63 -7.85)"/><path class="cls-1" d="M217.94,160.9l-6.54,1.38a4.17,4.17,0,0,1-1.54,0L204,160.67c-.38-.1-.32-.26.13-.36l6.52-1.32a4.12,4.12,0,0,1,1.49,0l5.85,1.54C218.41,160.65,218.38,160.81,217.94,160.9Z" transform="translate(-65.63 -7.85)"/><path class="cls-1" d="M226.91,159l-6.28,1.32a4,4,0,0,1-1.51,0l-5.85-1.53c-.38-.1-.34-.25.1-.34l6.27-1.27a3.92,3.92,0,0,1,1.45,0l5.87,1.48C227.35,158.78,227.33,158.93,226.91,159Z" transform="translate(-65.63 -7.85)"/><path class="cls-1" d="M235.53,157.21l-6,1.27a3.82,3.82,0,0,1-1.47,0L222.15,157c-.38-.09-.35-.24.07-.32l6-1.22a3.62,3.62,0,0,1,1.43,0l5.87,1.42C235.94,157,235.94,157.12,235.53,157.21Z" transform="translate(-65.63 -7.85)"/><path class="cls-1" d="M243.82,155.47,238,156.69a4.1,4.1,0,0,1-1.44,0l-5.87-1.42c-.38-.09-.37-.24,0-.32l5.81-1.17a3.87,3.87,0,0,1,1.4,0l5.88,1.37C244.21,155.24,244.21,155.39,243.82,155.47Z" transform="translate(-65.63 -7.85)"/><path class="cls-1" d="M251.81,153.79,246.22,155a4,4,0,0,1-1.42,0l-5.88-1.37c-.38-.09-.37-.23,0-.31l5.6-1.13a3.72,3.72,0,0,1,1.37,0l5.88,1.33C252.17,153.58,252.18,153.71,251.81,153.79Z" transform="translate(-65.63 -7.85)"/><path class="cls-1" d="M259.5,152.18l-5.39,1.13a3.83,3.83,0,0,1-1.39,0L246.85,152c-.38-.09-.39-.22,0-.3l5.39-1.09a4.08,4.08,0,0,1,1.35,0l5.87,1.28C259.83,152,259.86,152.1,259.5,152.18Z" transform="translate(-65.63 -7.85)"/><path class="cls-1" d="M127.34,175.52l-9.1,1.84a3.87,3.87,0,0,1-1.78,0l-5.16-2.09c-.33-.14-.1-.35.53-.47l9-1.76a3.89,3.89,0,0,1,1.72,0l5.24,2C128.16,175.19,128,175.4,127.34,175.52Z" transform="translate(-65.63 -7.85)"/><path class="cls-1" d="M139.81,173l-8.68,1.75a4,4,0,0,1-1.74,0l-5.26-2c-.34-.13-.13-.33.47-.45l8.61-1.68a4,4,0,0,1,1.67,0l5.33,1.93C140.57,172.69,140.39,172.89,139.81,173Z" transform="translate(-65.63 -7.85)"/><path class="cls-1" d="M151.72,170.6l-8.29,1.68a4,4,0,0,1-1.7,0l-5.34-1.91c-.35-.13-.16-.32.41-.43l8.23-1.6a3.87,3.87,0,0,1,1.64,0l5.4,1.84C152.43,170.3,152.28,170.49,151.72,170.6Z" transform="translate(-65.63 -7.85)"/><path class="cls-1" d="M163.11,168.3l-7.93,1.61a3.79,3.79,0,0,1-1.66,0l-5.41-1.83c-.35-.12-.19-.31.35-.41l7.88-1.54a4,4,0,0,1,1.6,0l5.47,1.77C163.77,168,163.64,168.2,163.11,168.3Z" transform="translate(-65.63 -7.85)"/><path class="cls-1" d="M174,166.1l-7.59,1.54a4.2,4.2,0,0,1-1.63,0l-5.47-1.77c-.35-.11-.21-.29.31-.39l7.55-1.47a3.85,3.85,0,0,1,1.56,0l5.52,1.7C174.63,165.82,174.52,166,174,166.1Z" transform="translate(-65.63 -7.85)"/><path class="cls-1" d="M184.45,164l-7.28,1.47a3.77,3.77,0,0,1-1.58,0l-5.52-1.69c-.36-.11-.24-.28.26-.37l7.24-1.42a4.1,4.1,0,0,1,1.53,0l5.56,1.64C185,163.73,184.94,163.9,184.45,164Z" transform="translate(-65.63 -7.85)"/><path class="cls-1" d="M194.46,162l-7,1.4a3.82,3.82,0,0,1-1.55,0l-5.56-1.62c-.36-.11-.26-.27.22-.36l6.94-1.36a4,4,0,0,1,1.51,0l5.59,1.57C195,161.72,194.93,161.88,194.46,162Z" transform="translate(-65.63 -7.85)"/><path class="cls-1" d="M204.07,160l-6.7,1.35a4.06,4.06,0,0,1-1.52,0l-5.59-1.57c-.37-.1-.29-.25.18-.34l6.67-1.31a4.23,4.23,0,0,1,1.47,0l5.62,1.52C204.58,159.79,204.52,160,204.07,160Z" transform="translate(-65.63 -7.85)"/><path class="cls-1" d="M213.3,158.17l-6.44,1.3a3.91,3.91,0,0,1-1.49,0l-5.62-1.5c-.36-.1-.3-.25.15-.34l6.41-1.25a4.13,4.13,0,0,1,1.45,0l5.63,1.46C213.77,157.94,213.73,158.09,213.3,158.17Z" transform="translate(-65.63 -7.85)"/><path class="cls-1" d="M222.17,156.38,216,157.63a3.76,3.76,0,0,1-1.46,0l-5.64-1.45c-.36-.09-.32-.24.11-.32l6.17-1.2a3.75,3.75,0,0,1,1.42,0l5.65,1.4C222.61,156.15,222.58,156.3,222.17,156.38Z" transform="translate(-65.63 -7.85)"/><path class="cls-1" d="M230.7,154.66l-5.95,1.2a3.87,3.87,0,0,1-1.44,0l-5.65-1.4c-.36-.09-.33-.23.08-.31l5.94-1.15a4,4,0,0,1,1.39,0l5.66,1.36C231.11,154.44,231.1,154.58,230.7,154.66Z" transform="translate(-65.63 -7.85)"/><path class="cls-1" d="M238.91,153l-5.73,1.16a3.87,3.87,0,0,1-1.4,0l-5.66-1.35c-.37-.09-.35-.22,0-.3l5.72-1.11a3.94,3.94,0,0,1,1.37,0l5.66,1.31C239.3,152.79,239.3,152.93,238.91,153Z" transform="translate(-65.63 -7.85)"/><path class="cls-1" d="M251.62,150.44l-10.31,2.08a3.76,3.76,0,0,1-1.38,0l-5.67-1.3c-.37-.09-.36-.22,0-.29l10.32-2a3.9,3.9,0,0,1,1.32,0l5.67,1.23C252,150.24,252,150.36,251.62,150.44Z" transform="translate(-65.63 -7.85)"/><path class="cls-1" d="M120.46,172.57l-8.88,1.73a3.76,3.76,0,0,1-1.73,0l-2.1-.84c-.33-.14-.09-.34.53-.46l8.84-1.68a4.07,4.07,0,0,1,1.69,0l2.13.82C121.28,172.26,121.06,172.46,120.46,172.57Z" transform="translate(-65.63 -7.85)"/><path class="cls-1" d="M133.38,170.07l-8.47,1.64a3.76,3.76,0,0,1-1.69,0l-2.15-.81c-.33-.13-.12-.32.47-.43l8.43-1.61a3.9,3.9,0,0,1,1.65,0l2.18.78C134.14,169.77,134,170,133.38,170.07Z" transform="translate(-65.63 -7.85)"/><path class="cls-1" d="M145.7,167.68l-8.09,1.57a3.91,3.91,0,0,1-1.65,0l-2.18-.78c-.33-.12-.15-.31.41-.41l8.05-1.54a3.87,3.87,0,0,1,1.61,0l2.21.74C146.41,167.39,146.24,167.57,145.7,167.68Z" transform="translate(-65.63 -7.85)"/><path class="cls-1" d="M157.47,165.4l-7.73,1.49a3.74,3.74,0,0,1-1.61,0l-2.21-.74c-.34-.11-.18-.29.36-.39l7.69-1.47a3.94,3.94,0,0,1,1.58,0l2.23.72C158.13,165.12,158,165.3,157.47,165.4Z" transform="translate(-65.63 -7.85)"/><path class="cls-1" d="M168.72,163.21l-7.39,1.44a3.89,3.89,0,0,1-1.57,0l-2.24-.72c-.35-.11-.21-.28.31-.37l7.36-1.41a4.13,4.13,0,0,1,1.54,0l2.25.69C169.34,163,169.22,163.12,168.72,163.21Z" transform="translate(-65.63 -7.85)"/><path class="cls-1" d="M179.49,161.12l-7.07,1.38a4.14,4.14,0,0,1-1.54,0l-2.26-.69c-.35-.1-.23-.27.26-.36l7.05-1.34a4,4,0,0,1,1.51,0l2.27.66C180.07,160.87,180,161,179.49,161.12Z" transform="translate(-65.63 -7.85)"/><path class="cls-1" d="M189.81,159.12,183,160.44a4,4,0,0,1-1.51,0l-2.27-.66c-.36-.1-.26-.26.21-.35l6.76-1.28a3.84,3.84,0,0,1,1.48,0l2.29.63C190.35,158.88,190.27,159,189.81,159.12Z" transform="translate(-65.63 -7.85)"/><path class="cls-1" d="M199.7,157.2l-6.49,1.26a3.84,3.84,0,0,1-1.48,0l-2.29-.63c-.36-.09-.28-.24.17-.33l6.49-1.23a3.64,3.64,0,0,1,1.44,0l2.3.6C200.2,157,200.14,157.12,199.7,157.2Z" transform="translate(-65.63 -7.85)"/><path class="cls-1" d="M209.2,155.36,203,156.57a3.7,3.7,0,0,1-1.45,0l-2.3-.6c-.36-.1-.29-.24.14-.32l6.23-1.19a3.9,3.9,0,0,1,1.41,0l2.31.59C209.67,155.14,209.62,155.28,209.2,155.36Z" transform="translate(-65.63 -7.85)"/><path class="cls-1" d="M218.31,153.59l-6,1.17a4,4,0,0,1-1.42,0l-2.31-.59c-.36-.09-.31-.23.1-.31l6-1.14a4.3,4.3,0,0,1,1.39,0l2.31.57C218.75,153.38,218.72,153.51,218.31,153.59Z" transform="translate(-65.63 -7.85)"/><path class="cls-1" d="M227.08,151.89,221.32,153a3.81,3.81,0,0,1-1.39,0l-2.32-.56c-.36-.09-.32-.22.08-.3l5.75-1.09a3.93,3.93,0,0,1,1.37,0l2.32.55C227.49,151.69,227.47,151.82,227.08,151.89Z" transform="translate(-65.63 -7.85)"/><path class="cls-1" d="M235.51,150.26,230,151.33a3.65,3.65,0,0,1-1.36,0l-2.32-.54c-.36-.08-.34-.21.05-.28l5.53-1.06a4,4,0,0,1,1.34,0l2.32.52C235.9,150.06,235.89,150.18,235.51,150.26Z" transform="translate(-65.63 -7.85)"/><path class="cls-1" d="M243.63,148.68l-5.33,1a4,4,0,0,1-1.34,0l-2.32-.52c-.36-.08-.35-.21,0-.28l5.33-1a4.11,4.11,0,0,1,1.31,0l2.33.51C244,148.49,244,148.61,243.63,148.68Z" transform="translate(-65.63 -7.85)"/><polygon class="cls-1" points="8.71 9.64 13.48 153.19 165.5 128.82 168.15 17.58 8.71 9.64"/><path class="cls-1" d="M236.93,143.23l0-1.92S239.35,29,239.35,24.24s-4.77-5.16-4.77-5.16L71.3,8.35h0c-.07,0-5.17.45-5.17,8.74,0,7,1.82,120.3,4.39,153.79.39,5,2,5.12,2,5.12a4.69,4.69,0,0,1,4-3.18c5.75-.95,19.8-3.74,21-3.95,0,0,0-.05,0-.06-.45-.29-2.87-2,1-2.48,4.21-.52,119.76-21.44,121.28-21.71h0l1.83,1.56h0c.5-.12,13-3.16,16.93-2.38S347.28,166.9,349,167.26c0,0,0,0,0,0l.09.64A1.93,1.93,0,0,1,347.8,170h0c-2.38.8-163.28,51.25-163.28,51.25s-7.15,2-11.52,0-96.93-43.7-96.93-43.7L72.53,176s0,0,0,0a4,4,0,0,0,0,2.48,5.54,5.54,0,0,0,2.87,3.28C86.47,187.3,166,226.57,172.6,228c7.13,1.59,11.49-.38,11.52-.39h0l162.48-52h0c.05,0,4.32-2.18,2.38-8.34" transform="translate(-65.63 -7.85)"/><circle class="cls-2" cx="97.37" cy="10.46" r="1.79"/><polygon class="cls-1" points="125.72 177.09 164.61 192.53 221.45 174.94 181.53 163.36 125.72 177.09"/><path class="cls-1" d="M416.61,151l-52.23-23.82c-1.89-.86-3.39-3.63-3.39-6.19V34.18c0-2.57,1.5-4.72,3.39-4.81l52.23-2.31a5.61,5.61,0,0,1,5.65,5.88V147.49C422.26,150.88,419.7,152.45,416.61,151Z" transform="translate(-65.63 -7.85)"/><path class="cls-1" d="M420.08,153.6,364.51,128c-1.89-.87-3.39-3.64-3.39-6.21V33.28c0-2.57,1.5-4.73,3.39-4.82l55.57-2.73a5.71,5.71,0,0,1,5.81,5.94V150.05C425.89,153.49,423.25,155.06,420.08,153.6Z" transform="translate(-65.63 -7.85)"/><polygon class="cls-1" points="351.57 135.52 298.38 112.96 298.38 27.78 351.57 27.13 351.57 135.52"/><path class="cls-2" d="M388.13,32.39a.83.83,0,0,1-.72.9.79.79,0,0,1-.71-.86.83.83,0,0,1,.71-.9A.78.78,0,0,1,388.13,32.39Z" transform="translate(-65.63 -7.85)"/><path class="cls-2" d="M389.15,135.06c0,1.18-.78,1.79-1.74,1.36a3.37,3.37,0,0,1-1.71-2.88c0-1.16.77-1.77,1.71-1.36A3.32,3.32,0,0,1,389.15,135.06Z" transform="translate(-65.63 -7.85)"/><path class="cls-1" d="M339.61,114.59l-15.18-5c-2.7-.88-4.82-4.35-4.82-7.77v-46c0-3.42,2.12-6.22,4.82-6.26l15.18-.23c3.28,0,6,3.11,6,7v53C345.65,113.38,342.89,115.67,339.61,114.59Z" transform="translate(-65.63 -7.85)"/><path class="cls-1" d="M340.7,115l-16.27-5.36c-2.7-.88-4.82-4.35-4.82-7.77v-46c0-3.42,2.12-6.22,4.82-6.26l16.27-.24c3.33-.05,6.11,3.12,6.11,7.09v53.35C346.81,113.75,344,116,340.7,115Z" transform="translate(-65.63 -7.85)"/><polygon class="cls-1" points="277.93 100.93 255.58 94.4 255.58 48.02 277.93 48.51 277.93 100.93"/><path class="cls-1" d="M333.36,108.94c0,1.13-.75,1.81-1.66,1.52a2.73,2.73,0,0,1-1.63-2.54c0-1.11.72-1.8,1.63-1.53A2.74,2.74,0,0,1,333.36,108.94Z" transform="translate(-65.63 -7.85)"/></svg>