<?xml version="1.0" encoding="utf-8"?>
<!-- Generator: Adobe Illustrator 23.0.6, SVG Export Plug-In . SVG Version: 6.00 Build 0)  -->
<svg version="1.1" id="Layer_1" xmlns="http://www.w3.org/2000/svg" xmlns:xlink="http://www.w3.org/1999/xlink" x="0px" y="0px"
	 viewBox="0 0 26.5 15.4" style="enable-background:new 0 0 26.5 15.4;" xml:space="preserve">
<style type="text/css">
	.st0{fill:#FFFFFF;}
</style>
<title>rewind</title>
<path class="st0" d="M13.5,7.5c-0.4,0.2-0.4,0.8,0,1l5.9,3.3l5.9,3.3c0.4,0.2,0.8-0.1,0.8-0.5l-0.1-6.8L25.9,1
	c0-0.4-0.5-0.7-0.8-0.5L19.3,4L13.5,7.5z"/>
<path class="st0" d="M0.8,7.5c-0.4,0.2-0.4,0.8,0,1l5.9,3.3l5.9,3.3c0.4,0.2,0.8-0.1,0.8-0.5l-0.1-6.8L13.2,1c0-0.4-0.5-0.7-0.8-0.5
	L6.6,4L0.8,7.5z"/>
</svg>
