<?xml version="1.0" encoding="utf-8"?>
<!-- Generator: Adobe Illustrator 23.0.6, SVG Export Plug-In . SVG Version: 6.00 Build 0)  -->
<svg version="1.1" id="Layer_1" xmlns="http://www.w3.org/2000/svg" xmlns:xlink="http://www.w3.org/1999/xlink" x="0px" y="0px"
	 viewBox="0 0 12 14" style="enable-background:new 0 0 12 14;" xml:space="preserve">
<style type="text/css">
	.st0{fill:#FFFFFF;}
</style>
<title>stopButton</title>
<path class="st0" d="M0.6,0h2.9C3.8,0,4,0.2,4,0.6v12.9C4,13.8,3.8,14,3.4,14H0.6C0.2,14,0,13.8,0,13.4V0.6C0,0.2,0.2,0,0.6,0z"/>
<path class="st0" d="M8.6,0h2.9C11.8,0,12,0.2,12,0.6v12.9c0,0.3-0.2,0.6-0.6,0.6H8.6C8.2,14,8,13.8,8,13.4V0.6C8,0.2,8.2,0,8.6,0z"
	/>
</svg>
