<?xml version="1.0" encoding="utf-8"?>
<!-- Generator: Adobe Illustrator 23.0.6, SVG Export Plug-In . SVG Version: 6.00 Build 0)  -->
<svg version="1.1" id="Layer_1" xmlns="http://www.w3.org/2000/svg" xmlns:xlink="http://www.w3.org/1999/xlink" x="0px" y="0px"
	 viewBox="0 0 337.14 91.55" style="enable-background:new 0 0 337.14 91.55;" xml:space="preserve">
<style type="text/css">
	.st0{fill:#FFFFFF;}
</style>
<g>
	<g>
		<polygon class="st0" points="0.06,0 0,0 0,91.55 0.07,91.55 45.84,45.78 		"/>
		<polygon class="st0" points="27.56,91.55 91.55,91.55 91.55,91.49 59.59,59.52 		"/>
		<polygon class="st0" points="91.55,64 91.55,27.56 73.33,45.78 		"/>
		<polygon class="st0" points="91.55,0.07 91.55,0 27.55,0 59.59,32.04 		"/>
	</g>
	<g>
		<path class="st0" d="M127.03,27.04h4.3v32.12h-4.3v-1.94c-1.69,1.65-3.59,2.47-5.72,2.47c-2.54,0-4.64-0.92-6.31-2.78
			c-1.66-1.89-2.49-4.25-2.49-7.07c0-2.76,0.83-5.07,2.49-6.92c1.65-1.86,3.72-2.8,6.22-2.8c2.17,0,4.11,0.89,5.82,2.66V27.04z
			 M116.88,49.84c0,1.78,0.48,3.22,1.43,4.34c0.98,1.13,2.21,1.69,3.69,1.69c1.58,0,2.87-0.54,3.84-1.64
			c0.98-1.13,1.46-2.56,1.46-4.3s-0.49-3.17-1.46-4.3c-0.98-1.1-2.24-1.65-3.8-1.65c-1.47,0-2.7,0.56-3.69,1.67
			C117.37,46.79,116.88,48.18,116.88,49.84z"/>
		<path class="st0" d="M153.6,50.91h-13.27c0.11,1.52,0.61,2.73,1.48,3.63c0.88,0.89,2,1.33,3.37,1.33c1.06,0,1.95-0.25,2.64-0.76
			c0.68-0.51,1.46-1.45,2.34-2.81l3.61,2.02c-0.56,0.95-1.15,1.77-1.77,2.44c-0.62,0.68-1.29,1.24-2,1.67s-1.48,0.76-2.3,0.96
			c-0.82,0.2-1.72,0.3-2.68,0.3c-2.76,0-4.98-0.89-6.66-2.66c-1.67-1.79-2.51-4.16-2.51-7.11c0-2.93,0.81-5.3,2.43-7.11
			c1.63-1.79,3.8-2.68,6.5-2.68c2.73,0,4.88,0.87,6.47,2.6c1.57,1.72,2.36,4.11,2.36,7.17L153.6,50.91z M149.21,47.41
			c-0.6-2.28-2.03-3.42-4.32-3.42c-0.52,0-1.01,0.08-1.46,0.24c-0.46,0.16-0.87,0.39-1.25,0.68s-0.69,0.66-0.96,1.07
			c-0.27,0.42-0.47,0.89-0.61,1.43H149.21z"/>
		<path class="st0" d="M158.28,40.64h4.28v1.65c0.79-0.82,1.48-1.39,2.09-1.69c0.62-0.32,1.36-0.48,2.21-0.48
			c1.13,0,2.31,0.37,3.54,1.1l-1.96,3.92c-0.81-0.58-1.6-0.87-2.38-0.87c-2.33,0-3.5,1.76-3.5,5.29v9.6h-4.28V40.64z"/>
		<path class="st0" d="M173.43,40.64h4.28v1.65c0.79-0.82,1.48-1.39,2.09-1.69c0.62-0.32,1.36-0.48,2.21-0.48
			c1.13,0,2.31,0.37,3.54,1.1l-1.96,3.92c-0.81-0.58-1.6-0.87-2.38-0.87c-2.33,0-3.5,1.76-3.5,5.29v9.6h-4.28V40.64z"/>
		<path class="st0" d="M187.94,32.94c0-0.75,0.27-1.39,0.82-1.94c0.54-0.54,1.2-0.82,1.96-0.82c0.77,0,1.43,0.27,1.98,0.82
			c0.54,0.53,0.82,1.19,0.82,1.96s-0.27,1.43-0.82,1.98c-0.53,0.55-1.19,0.82-1.96,0.82c-0.77,0-1.43-0.27-1.98-0.82
			C188.22,34.39,187.94,33.72,187.94,32.94z M192.87,40.64v18.52h-4.28V40.64H192.87z"/>
		<path class="st0" d="M202.57,27.04v19.59l6.03-5.99h5.74l-8.04,7.78l8.63,10.74h-5.55l-6.12-7.82l-0.68,0.68v7.13h-4.28V27.04
			H202.57z"/>
		<path class="st0" d="M223.43,49.14l-6.66-8.5h5.1l4.13,5.4l4.2-5.4h5.25l-6.85,8.5l7.93,10.02h-5.1l-5.44-6.92l-5.57,6.92h-5.23
			L223.43,49.14z"/>
		<path class="st0" d="M252.41,40.64h4.3v18.52h-4.3v-1.94c-1.76,1.65-3.66,2.47-5.69,2.47c-2.56,0-4.68-0.92-6.35-2.78
			c-1.66-1.89-2.49-4.25-2.49-7.07c0-2.78,0.83-5.09,2.49-6.94s3.74-2.78,6.24-2.78c2.16,0,4.09,0.89,5.8,2.66V40.64z M242.25,49.84
			c0,1.78,0.48,3.22,1.43,4.34c0.98,1.13,2.21,1.69,3.69,1.69c1.58,0,2.87-0.54,3.84-1.64c0.98-1.13,1.46-2.56,1.46-4.3
			s-0.49-3.17-1.46-4.3c-0.98-1.1-2.24-1.65-3.8-1.65c-1.47,0-2.7,0.56-3.69,1.67C242.74,46.79,242.25,48.18,242.25,49.84z"/>
		<path class="st0" d="M264.75,40.64l4.79,10.4l4.77-10.4h4.81l-9.62,19.8l-9.55-19.8H264.75z"/>
		<path class="st0" d="M281.37,32.94c0-0.75,0.27-1.39,0.82-1.94c0.54-0.54,1.2-0.82,1.96-0.82c0.77,0,1.43,0.27,1.98,0.82
			c0.54,0.53,0.82,1.19,0.82,1.96s-0.27,1.43-0.82,1.98c-0.53,0.55-1.19,0.82-1.96,0.82c-0.77,0-1.43-0.27-1.98-0.82
			C281.64,34.39,281.37,33.72,281.37,32.94z M286.29,40.64v18.52h-4.28V40.64H286.29z"/>
		<path class="st0" d="M308.58,50.91h-13.27c0.11,1.52,0.61,2.73,1.48,3.63c0.88,0.89,2,1.33,3.37,1.33c1.06,0,1.95-0.25,2.64-0.76
			c0.68-0.51,1.46-1.45,2.34-2.81l3.61,2.02c-0.56,0.95-1.15,1.77-1.77,2.44c-0.62,0.68-1.29,1.24-2,1.67s-1.48,0.76-2.3,0.96
			c-0.82,0.2-1.72,0.3-2.68,0.3c-2.76,0-4.98-0.89-6.66-2.66c-1.67-1.79-2.51-4.16-2.51-7.11c0-2.93,0.81-5.3,2.43-7.11
			c1.63-1.79,3.8-2.68,6.5-2.68c2.73,0,4.88,0.87,6.47,2.6c1.57,1.72,2.36,4.11,2.36,7.17L308.58,50.91z M304.19,47.41
			c-0.6-2.28-2.03-3.42-4.32-3.42c-0.52,0-1.01,0.08-1.46,0.24c-0.46,0.16-0.87,0.39-1.25,0.68s-0.69,0.66-0.96,1.07
			c-0.27,0.42-0.47,0.89-0.61,1.43H304.19z"/>
		<path class="st0" d="M313.26,40.64h4.28v1.65c0.79-0.82,1.48-1.39,2.09-1.69c0.62-0.32,1.36-0.48,2.21-0.48
			c1.13,0,2.31,0.37,3.54,1.1l-1.96,3.92c-0.81-0.58-1.6-0.87-2.38-0.87c-2.33,0-3.5,1.76-3.5,5.29v9.6h-4.28V40.64z"/>
	</g>
</g>
</svg>
