<?xml version="1.0" encoding="utf-8"?>
<!-- Generator: Adobe Illustrator 23.0.6, SVG Export Plug-In . SVG Version: 6.00 Build 0)  -->
<svg version="1.1" id="Layer_1" xmlns="http://www.w3.org/2000/svg" xmlns:xlink="http://www.w3.org/1999/xlink" x="0px" y="0px"
	 viewBox="0 0 83.54 100.58" style="enable-background:new 0 0 83.54 100.58;" xml:space="preserve">
<style type="text/css">
	.st0{fill:#FFFFFF;}
</style>
<g>
	<g>
		<polygon class="st0" points="1.35,0 1.3,0 1.3,82.14 1.36,82.14 39.9,41.08 		"/>
		<polygon class="st0" points="24.5,82.14 78.39,82.14 78.39,82.09 51.47,53.41 		"/>
		<polygon class="st0" points="78.39,57.42 78.39,24.73 63.05,41.08 		"/>
		<polygon class="st0" points="78.39,0.07 78.39,0 24.5,0 51.47,28.75 		"/>
	</g>
	<g>
		<path class="st0" d="M6.03,86.55h1.59v12.62H6.03v-0.76c-0.62,0.65-1.33,0.97-2.11,0.97c-0.94,0-1.71-0.36-2.33-1.09
			c-0.61-0.74-0.92-1.67-0.92-2.78c0-1.09,0.31-1.99,0.92-2.72c0.61-0.73,1.37-1.1,2.29-1.1c0.8,0,1.52,0.35,2.15,1.05V86.55z
			 M2.29,95.52c0,0.7,0.18,1.27,0.53,1.71c0.36,0.44,0.81,0.67,1.36,0.67c0.58,0,1.06-0.21,1.42-0.64c0.36-0.44,0.54-1.01,0.54-1.69
			s-0.18-1.25-0.54-1.69c-0.36-0.43-0.83-0.65-1.4-0.65c-0.54,0-1,0.22-1.36,0.66C2.47,94.32,2.29,94.86,2.29,95.52z"/>
		<path class="st0" d="M15.83,95.94h-4.9c0.04,0.6,0.22,1.07,0.55,1.43c0.32,0.35,0.74,0.52,1.24,0.52c0.39,0,0.72-0.1,0.98-0.3
			c0.25-0.2,0.54-0.57,0.86-1.11l1.33,0.79c-0.21,0.37-0.42,0.69-0.65,0.96s-0.47,0.49-0.74,0.66c-0.26,0.17-0.54,0.3-0.85,0.38
			c-0.3,0.08-0.63,0.12-0.99,0.12c-1.02,0-1.84-0.35-2.46-1.05c-0.62-0.7-0.93-1.63-0.93-2.8c0-1.15,0.3-2.08,0.9-2.8
			c0.6-0.7,1.4-1.05,2.4-1.05c1.01,0,1.8,0.34,2.39,1.02c0.58,0.68,0.87,1.62,0.87,2.82L15.83,95.94z M14.21,94.56
			c-0.22-0.9-0.75-1.35-1.59-1.35c-0.19,0-0.37,0.03-0.54,0.09c-0.17,0.06-0.32,0.15-0.46,0.27c-0.14,0.12-0.26,0.26-0.35,0.42
			c-0.1,0.16-0.17,0.35-0.22,0.56H14.21z"/>
		<path class="st0" d="M17.56,91.9h1.58v0.65c0.29-0.32,0.55-0.55,0.77-0.67c0.23-0.12,0.5-0.19,0.81-0.19
			c0.42,0,0.85,0.14,1.3,0.43l-0.72,1.54c-0.3-0.23-0.59-0.34-0.88-0.34c-0.86,0-1.29,0.69-1.29,2.08v3.77h-1.58V91.9z"/>
		<path class="st0" d="M23.15,91.9h1.58v0.65c0.29-0.32,0.55-0.55,0.77-0.67c0.23-0.12,0.5-0.19,0.81-0.19
			c0.42,0,0.85,0.14,1.3,0.43l-0.72,1.54c-0.3-0.23-0.59-0.34-0.88-0.34c-0.86,0-1.29,0.69-1.29,2.08v3.77h-1.58V91.9z"/>
		<path class="st0" d="M28.5,88.87c0-0.29,0.1-0.55,0.3-0.76c0.2-0.21,0.44-0.32,0.72-0.32c0.29,0,0.53,0.11,0.73,0.32
			c0.2,0.21,0.3,0.47,0.3,0.77c0,0.3-0.1,0.56-0.3,0.78c-0.2,0.21-0.44,0.32-0.72,0.32c-0.29,0-0.53-0.11-0.73-0.32
			C28.6,89.44,28.5,89.18,28.5,88.87z M30.32,91.9v7.28h-1.58V91.9H30.32z"/>
		<path class="st0" d="M33.9,86.55v7.7l2.22-2.35h2.12l-2.97,3.06l3.18,4.22h-2.05l-2.26-3.07l-0.25,0.27v2.8h-1.58V86.55H33.9z"/>
		<path class="st0" d="M41.59,95.24l-2.46-3.34h1.88l1.52,2.12l1.55-2.12h1.94l-2.53,3.34l2.93,3.94h-1.88l-2.01-2.72l-2.06,2.72
			h-1.93L41.59,95.24z"/>
		<path class="st0" d="M52.28,91.9h1.59v7.28h-1.59v-0.76c-0.65,0.65-1.35,0.97-2.1,0.97c-0.94,0-1.73-0.36-2.34-1.09
			c-0.61-0.74-0.92-1.67-0.92-2.78c0-1.09,0.31-2,0.92-2.73s1.38-1.09,2.3-1.09c0.79,0,1.51,0.35,2.14,1.05V91.9z M48.54,95.52
			c0,0.7,0.18,1.27,0.53,1.71c0.36,0.44,0.81,0.67,1.36,0.67c0.58,0,1.06-0.21,1.42-0.64c0.36-0.44,0.54-1.01,0.54-1.69
			s-0.18-1.25-0.54-1.69c-0.36-0.43-0.83-0.65-1.4-0.65c-0.54,0-1,0.22-1.36,0.66C48.72,94.32,48.54,94.86,48.54,95.52z"/>
		<path class="st0" d="M56.84,91.9l1.77,4.09l1.76-4.09h1.77l-3.55,7.78l-3.52-7.78H56.84z"/>
		<path class="st0" d="M62.97,88.87c0-0.29,0.1-0.55,0.3-0.76c0.2-0.21,0.44-0.32,0.72-0.32c0.29,0,0.53,0.11,0.73,0.32
			c0.2,0.21,0.3,0.47,0.3,0.77c0,0.3-0.1,0.56-0.3,0.78c-0.2,0.21-0.44,0.32-0.72,0.32c-0.29,0-0.53-0.11-0.73-0.32
			C63.07,89.44,62.97,89.18,62.97,88.87z M64.79,91.9v7.28h-1.58V91.9H64.79z"/>
		<path class="st0" d="M73.01,95.94h-4.9c0.04,0.6,0.22,1.07,0.55,1.43c0.32,0.35,0.74,0.52,1.24,0.52c0.39,0,0.72-0.1,0.98-0.3
			c0.25-0.2,0.54-0.57,0.86-1.11l1.33,0.79c-0.21,0.37-0.42,0.69-0.65,0.96s-0.47,0.49-0.74,0.66c-0.26,0.17-0.54,0.3-0.85,0.38
			c-0.3,0.08-0.63,0.12-0.99,0.12c-1.02,0-1.84-0.35-2.46-1.05c-0.62-0.7-0.93-1.63-0.93-2.8c0-1.15,0.3-2.08,0.9-2.8
			c0.6-0.7,1.4-1.05,2.4-1.05c1.01,0,1.8,0.34,2.39,1.02c0.58,0.68,0.87,1.62,0.87,2.82L73.01,95.94z M71.39,94.56
			c-0.22-0.9-0.75-1.35-1.59-1.35c-0.19,0-0.37,0.03-0.54,0.09c-0.17,0.06-0.32,0.15-0.46,0.27c-0.14,0.12-0.26,0.26-0.35,0.42
			c-0.1,0.16-0.17,0.35-0.22,0.56H71.39z"/>
		<path class="st0" d="M74.73,91.9h1.58v0.65c0.29-0.32,0.55-0.55,0.77-0.67c0.23-0.12,0.5-0.19,0.81-0.19
			c0.42,0,0.85,0.14,1.3,0.43l-0.72,1.54c-0.3-0.23-0.59-0.34-0.88-0.34c-0.86,0-1.29,0.69-1.29,2.08v3.77h-1.58V91.9z"/>
	</g>
</g>
</svg>
